M48
; DRILL file {KiCad 8.0.8} date 2025-05-22T15:12:15+0200
; FORMAT={-:-/ absolute / metric / decimal}
; #@! TF.CreationDate,2025-05-22T15:12:15+02:00
; #@! TF.GenerationSoftware,Kicad,Pcbnew,8.0.8
; #@! TF.FileFunction,Plated,1,2,PTH
FMAT,2
METRIC
; #@! TA.AperFunction,Plated,PTH,ViaDrill
T1C0.300
; #@! TA.AperFunction,Plated,PTH,ComponentDrill
T2C0.600
; #@! TA.AperFunction,Plated,PTH,ComponentDrill
T3C1.020
; #@! TA.AperFunction,Plated,PTH,ComponentDrill
T4C1.270
%
G90
G05
T1
X78.6Y-92.4
X80.277Y-89.6
X80.827Y-88.4
X81.376Y-87.2
X81.926Y-85.4
X82.475Y-82.8
X82.926Y-80.0
X128.4Y-101.475
X136.2Y-84.0
X186.2Y-75.2
X186.2Y-92.6
T3
X69.647Y-52.578
X69.647Y-55.118
X69.647Y-57.658
X69.647Y-60.198
X69.647Y-62.738
X69.647Y-65.278
X69.647Y-67.818
X69.647Y-70.358
X69.647Y-72.898
X69.647Y-75.438
X69.647Y-77.978
X69.647Y-80.518
X69.647Y-83.058
X69.647Y-85.598
X69.647Y-88.138
X69.647Y-90.678
X69.647Y-93.218
X69.647Y-95.758
X69.647Y-98.298
X69.647Y-100.838
X87.427Y-52.578
X87.427Y-55.118
X87.427Y-57.658
X87.427Y-60.198
X87.427Y-62.738
X87.427Y-65.278
X87.427Y-67.818
X87.427Y-70.358
X87.427Y-72.898
X87.427Y-75.438
X87.427Y-77.978
X87.427Y-80.518
X87.427Y-83.058
X87.427Y-85.598
X87.427Y-88.138
X87.427Y-90.678
X87.427Y-93.218
X87.427Y-95.758
X87.427Y-98.298
X87.427Y-100.838
T4
X82.314Y-126.557
X87.733Y-126.347
X100.24Y-63.8
X100.24Y-80.8
X100.24Y-97.8
X101.976Y-118.611
X105.24Y-65.9
X105.24Y-82.9
X105.24Y-99.9
X107.265Y-119.81
X118.24Y-61.8
X118.24Y-78.8
X118.24Y-95.8
X122.928Y-116.35
X123.24Y-63.9
X123.24Y-80.9
X123.24Y-97.9
X127.726Y-118.878
X136.24Y-56.8
X136.24Y-73.8
X136.24Y-90.8
X141.24Y-58.9
X141.24Y-75.9
X141.24Y-92.9
X154.24Y-61.8
X154.24Y-78.8
X154.24Y-95.8
X159.24Y-63.9
X159.24Y-80.9
X159.24Y-97.9
X172.24Y-73.8
X172.24Y-90.8
X172.24Y-107.8
X177.24Y-75.9
X177.24Y-92.9
X177.24Y-109.9
X190.24Y-73.8
X190.24Y-90.8
X190.24Y-107.8
X195.24Y-75.9
X195.24Y-92.9
X195.24Y-109.9
T2
G00X68.16Y-104.68
M15
G01X68.96Y-104.68
M16
G05
G00X68.16Y-113.32
M15
G01X68.96Y-113.32
M16
G05
G00X72.18Y-104.68
M15
G01X73.28Y-104.68
M16
G05
G00X72.18Y-113.32
M15
G01X73.28Y-113.32
M16
G05
M30
