%TF.GenerationSoftware,KiCad,Pcbnew,8.0.8*%
%TF.CreationDate,2025-06-10T10:10:26+02:00*%
%TF.ProjectId,keyboard_pcb,6b657962-6f61-4726-945f-7063622e6b69,rev1.0*%
%TF.SameCoordinates,Original*%
%TF.FileFunction,Drillmap*%
%TF.FilePolarity,Positive*%
%FSLAX45Y45*%
G04 Gerber Fmt 4.5, Leading zero omitted, Abs format (unit mm)*
G04 Created by KiCad (PCBNEW 8.0.8) date 2025-06-10 10:10:26*
%MOMM*%
%LPD*%
G01*
G04 APERTURE LIST*
%ADD10C,0.100000*%
%ADD11C,0.200000*%
%ADD12C,0.102000*%
%ADD13C,0.127000*%
G04 APERTURE END LIST*
D10*
X18764000Y-10530000D02*
X18764000Y-9790000D01*
X6644000Y-5220000D02*
G75*
G02*
X6824000Y-5040000I180000J0D01*
G01*
X18564000Y-6040000D02*
X17124000Y-6040000D01*
X16724000Y-4840000D02*
G75*
G02*
X16924000Y-5040000I0J-200000D01*
G01*
X16274000Y-11360000D02*
X18564000Y-11360000D01*
X6680596Y-11548790D02*
X7929000Y-13245000D01*
X14149000Y-12112500D02*
G75*
G02*
X13474000Y-12317502I-598540J757010D01*
G01*
X14924000Y-4340000D02*
G75*
G02*
X15124000Y-4540000I0J-200000D01*
G01*
X18844000Y-6240000D02*
G75*
G02*
X19044000Y-6040000I200000J0D01*
G01*
X11149000Y-5040000D02*
X6824000Y-5040000D01*
X15124000Y-4640000D02*
X15124000Y-4540000D01*
X18844000Y-6240000D02*
G75*
G02*
X18764000Y-6240000I-40000J0D01*
G01*
X13124000Y-4540000D02*
X13124000Y-4640000D01*
X18764000Y-7610000D02*
X18764000Y-6870000D01*
X18844000Y-9310000D02*
G75*
G02*
X18764000Y-9310000I-40000J0D01*
G01*
X18764000Y-11160000D02*
G75*
G02*
X18844000Y-11160000I40000J0D01*
G01*
X18844000Y-7610000D02*
G75*
G02*
X18764000Y-7610000I-40000J0D01*
G01*
X19044000Y-11360000D02*
G75*
G02*
X18844000Y-11160000I0J200000D01*
G01*
X18844000Y-10530000D02*
X18844000Y-9790000D01*
X6680596Y-11548790D02*
G75*
G02*
X6644000Y-11440000I143404J108790D01*
G01*
X16924000Y-5840000D02*
X16924000Y-5040000D01*
X18764000Y-6870000D02*
G75*
G02*
X18844000Y-6870000I40000J0D01*
G01*
X20324000Y-6040000D02*
X19044000Y-6040000D01*
X19044000Y-11360000D02*
X20324000Y-11360000D01*
X13124000Y-4540000D02*
G75*
G02*
X13324000Y-4340000I200000J0D01*
G01*
X15324000Y-4840000D02*
G75*
G02*
X15124000Y-4640000I0J200000D01*
G01*
X20524000Y-11160000D02*
G75*
G02*
X20324000Y-11360000I-200000J0D01*
G01*
X6644000Y-11320000D02*
X6644000Y-11440000D01*
X13474000Y-12317500D02*
X12744000Y-12260000D01*
X8172613Y-13312145D02*
X8911060Y-12980000D01*
X18764000Y-11160000D02*
G75*
G02*
X18564000Y-11360000I-200000J0D01*
G01*
X13124000Y-4640000D02*
G75*
G02*
X12924000Y-4840000I-200000J0D01*
G01*
X18844000Y-7610000D02*
X18844000Y-6870000D01*
X11324000Y-4940000D02*
G75*
G02*
X11149000Y-5039999I-174990J103110D01*
G01*
X20524000Y-11160000D02*
X20524000Y-6240000D01*
X18764000Y-9790000D02*
G75*
G02*
X18844000Y-9790000I40000J0D01*
G01*
X18844000Y-9310000D02*
X18844000Y-8090000D01*
X18764000Y-8090000D02*
G75*
G02*
X18844000Y-8090000I40000J0D01*
G01*
X14924000Y-4340000D02*
X13324000Y-4340000D01*
X20324000Y-6040000D02*
G75*
G02*
X20524000Y-6240000I0J-200000D01*
G01*
X14149000Y-12112500D02*
G75*
G02*
X16274000Y-11360000I2152276J-2701190D01*
G01*
X16724000Y-4840000D02*
X15324000Y-4840000D01*
X11324000Y-4940000D02*
G75*
G02*
X11494000Y-4840000I170000J-94500D01*
G01*
X18764000Y-9310000D02*
X18764000Y-8090000D01*
X6644000Y-5220000D02*
X6644000Y-11320000D01*
X18844000Y-10530000D02*
G75*
G02*
X18764000Y-10530000I-40000J0D01*
G01*
X17124000Y-6040000D02*
G75*
G02*
X16924000Y-5840000I0J200000D01*
G01*
X18564000Y-6040000D02*
G75*
G02*
X18764000Y-6240000I0J-200000D01*
G01*
X8172613Y-13312145D02*
G75*
G02*
X7929000Y-13245000I-83613J172145D01*
G01*
X12924000Y-4840000D02*
X11494000Y-4840000D01*
X8911060Y-12980000D02*
G75*
G02*
X12744000Y-12260000I3200547J-6475820D01*
G01*
D11*
D10*
X7310000Y-5602500D02*
X7340000Y-5632500D01*
X7340000Y-5602500D02*
X7310000Y-5632500D01*
X7310000Y-6042500D02*
X7340000Y-6072500D01*
X7340000Y-6042500D02*
X7310000Y-6072500D01*
X7845000Y-9225000D02*
X7875000Y-9255000D01*
X7875000Y-9225000D02*
X7845000Y-9255000D01*
X8012742Y-8945000D02*
X8042742Y-8975000D01*
X8042742Y-8945000D02*
X8012742Y-8975000D01*
X8067694Y-8825000D02*
X8097694Y-8855000D01*
X8097694Y-8825000D02*
X8067694Y-8855000D01*
X8122646Y-8705000D02*
X8152646Y-8735000D01*
X8152646Y-8705000D02*
X8122646Y-8735000D01*
X8177598Y-8525000D02*
X8207598Y-8555000D01*
X8207598Y-8525000D02*
X8177598Y-8555000D01*
X8232550Y-8265000D02*
X8262550Y-8295000D01*
X8262550Y-8265000D02*
X8232550Y-8295000D01*
X8277598Y-7985000D02*
X8307598Y-8015000D01*
X8307598Y-7985000D02*
X8277598Y-8015000D01*
X12825000Y-10132550D02*
X12855000Y-10162550D01*
X12855000Y-10132550D02*
X12825000Y-10162550D01*
X13605000Y-8385000D02*
X13635000Y-8415000D01*
X13635000Y-8385000D02*
X13605000Y-8415000D01*
X18605000Y-7505000D02*
X18635000Y-7535000D01*
X18635000Y-7505000D02*
X18605000Y-7535000D01*
X18605000Y-9245000D02*
X18635000Y-9275000D01*
X18635000Y-9245000D02*
X18605000Y-9275000D01*
X6886000Y-10468000D02*
G75*
G02*
X6826000Y-10468000I-30000J0D01*
G01*
X6826000Y-10468000D02*
G75*
G02*
X6886000Y-10468000I30000J0D01*
G01*
X6816000Y-10498000D02*
X6896000Y-10498000D01*
X6896000Y-10438000D02*
G75*
G02*
X6896000Y-10498000I0J-30000D01*
G01*
X6896000Y-10438000D02*
X6816000Y-10438000D01*
X6816000Y-10438000D02*
G75*
G03*
X6816000Y-10498000I0J-30000D01*
G01*
X6886000Y-11332000D02*
G75*
G02*
X6826000Y-11332000I-30000J0D01*
G01*
X6826000Y-11332000D02*
G75*
G02*
X6886000Y-11332000I30000J0D01*
G01*
X6816000Y-11362000D02*
X6896000Y-11362000D01*
X6896000Y-11302000D02*
G75*
G02*
X6896000Y-11362000I0J-30000D01*
G01*
X6896000Y-11302000D02*
X6816000Y-11302000D01*
X6816000Y-11302000D02*
G75*
G03*
X6816000Y-11362000I0J-30000D01*
G01*
X7303000Y-10468000D02*
G75*
G02*
X7243000Y-10468000I-30000J0D01*
G01*
X7243000Y-10468000D02*
G75*
G02*
X7303000Y-10468000I30000J0D01*
G01*
X7218000Y-10498000D02*
X7328000Y-10498000D01*
X7328000Y-10438000D02*
G75*
G02*
X7328000Y-10498000I0J-30000D01*
G01*
X7328000Y-10438000D02*
X7218000Y-10438000D01*
X7218000Y-10438000D02*
G75*
G03*
X7218000Y-10498000I0J-30000D01*
G01*
X7303000Y-11332000D02*
G75*
G02*
X7243000Y-11332000I-30000J0D01*
G01*
X7243000Y-11332000D02*
G75*
G02*
X7303000Y-11332000I30000J0D01*
G01*
X7218000Y-11362000D02*
X7328000Y-11362000D01*
X7328000Y-11302000D02*
G75*
G02*
X7328000Y-11362000I0J-30000D01*
G01*
X7328000Y-11302000D02*
X7218000Y-11302000D01*
X7218000Y-11302000D02*
G75*
G03*
X7218000Y-11362000I0J-30000D01*
G01*
D12*
X6964680Y-5206800D02*
X6964680Y-5308800D01*
X6913680Y-5257800D02*
X7015680Y-5257800D01*
X6964680Y-5460800D02*
X6964680Y-5562800D01*
X6913680Y-5511800D02*
X7015680Y-5511800D01*
X6964680Y-5714800D02*
X6964680Y-5816800D01*
X6913680Y-5765800D02*
X7015680Y-5765800D01*
X6964680Y-5968800D02*
X6964680Y-6070800D01*
X6913680Y-6019800D02*
X7015680Y-6019800D01*
X6964680Y-6222800D02*
X6964680Y-6324800D01*
X6913680Y-6273800D02*
X7015680Y-6273800D01*
X6964680Y-6476800D02*
X6964680Y-6578800D01*
X6913680Y-6527800D02*
X7015680Y-6527800D01*
X6964680Y-6730800D02*
X6964680Y-6832800D01*
X6913680Y-6781800D02*
X7015680Y-6781800D01*
X6964680Y-6984800D02*
X6964680Y-7086800D01*
X6913680Y-7035800D02*
X7015680Y-7035800D01*
X6964680Y-7238800D02*
X6964680Y-7340800D01*
X6913680Y-7289800D02*
X7015680Y-7289800D01*
X6964680Y-7492800D02*
X6964680Y-7594800D01*
X6913680Y-7543800D02*
X7015680Y-7543800D01*
X6964680Y-7746800D02*
X6964680Y-7848800D01*
X6913680Y-7797800D02*
X7015680Y-7797800D01*
X6964680Y-8000800D02*
X6964680Y-8102800D01*
X6913680Y-8051800D02*
X7015680Y-8051800D01*
X6964680Y-8254800D02*
X6964680Y-8356800D01*
X6913680Y-8305800D02*
X7015680Y-8305800D01*
X6964680Y-8508800D02*
X6964680Y-8610800D01*
X6913680Y-8559800D02*
X7015680Y-8559800D01*
X6964680Y-8762800D02*
X6964680Y-8864800D01*
X6913680Y-8813800D02*
X7015680Y-8813800D01*
X6964680Y-9016800D02*
X6964680Y-9118800D01*
X6913680Y-9067800D02*
X7015680Y-9067800D01*
X6964680Y-9270800D02*
X6964680Y-9372800D01*
X6913680Y-9321800D02*
X7015680Y-9321800D01*
X6964680Y-9524800D02*
X6964680Y-9626800D01*
X6913680Y-9575800D02*
X7015680Y-9575800D01*
X6964680Y-9778800D02*
X6964680Y-9880800D01*
X6913680Y-9829800D02*
X7015680Y-9829800D01*
X6964680Y-10032800D02*
X6964680Y-10134800D01*
X6913680Y-10083800D02*
X7015680Y-10083800D01*
X8742680Y-5206800D02*
X8742680Y-5308800D01*
X8691680Y-5257800D02*
X8793680Y-5257800D01*
X8742680Y-5460800D02*
X8742680Y-5562800D01*
X8691680Y-5511800D02*
X8793680Y-5511800D01*
X8742680Y-5714800D02*
X8742680Y-5816800D01*
X8691680Y-5765800D02*
X8793680Y-5765800D01*
X8742680Y-5968800D02*
X8742680Y-6070800D01*
X8691680Y-6019800D02*
X8793680Y-6019800D01*
X8742680Y-6222800D02*
X8742680Y-6324800D01*
X8691680Y-6273800D02*
X8793680Y-6273800D01*
X8742680Y-6476800D02*
X8742680Y-6578800D01*
X8691680Y-6527800D02*
X8793680Y-6527800D01*
X8742680Y-6730800D02*
X8742680Y-6832800D01*
X8691680Y-6781800D02*
X8793680Y-6781800D01*
X8742680Y-6984800D02*
X8742680Y-7086800D01*
X8691680Y-7035800D02*
X8793680Y-7035800D01*
X8742680Y-7238800D02*
X8742680Y-7340800D01*
X8691680Y-7289800D02*
X8793680Y-7289800D01*
X8742680Y-7492800D02*
X8742680Y-7594800D01*
X8691680Y-7543800D02*
X8793680Y-7543800D01*
X8742680Y-7746800D02*
X8742680Y-7848800D01*
X8691680Y-7797800D02*
X8793680Y-7797800D01*
X8742680Y-8000800D02*
X8742680Y-8102800D01*
X8691680Y-8051800D02*
X8793680Y-8051800D01*
X8742680Y-8254800D02*
X8742680Y-8356800D01*
X8691680Y-8305800D02*
X8793680Y-8305800D01*
X8742680Y-8508800D02*
X8742680Y-8610800D01*
X8691680Y-8559800D02*
X8793680Y-8559800D01*
X8742680Y-8762800D02*
X8742680Y-8864800D01*
X8691680Y-8813800D02*
X8793680Y-8813800D01*
X8742680Y-9016800D02*
X8742680Y-9118800D01*
X8691680Y-9067800D02*
X8793680Y-9067800D01*
X8742680Y-9270800D02*
X8742680Y-9372800D01*
X8691680Y-9321800D02*
X8793680Y-9321800D01*
X8742680Y-9524800D02*
X8742680Y-9626800D01*
X8691680Y-9575800D02*
X8793680Y-9575800D01*
X8742680Y-9778800D02*
X8742680Y-9880800D01*
X8691680Y-9829800D02*
X8793680Y-9829800D01*
X8742680Y-10032800D02*
X8742680Y-10134800D01*
X8691680Y-10083800D02*
X8793680Y-10083800D01*
D13*
X8276343Y-12700608D02*
X8276343Y-12610804D01*
X8186539Y-12610804D01*
X8186539Y-12700608D01*
X8276343Y-12700608D01*
X8818247Y-12679623D02*
X8818247Y-12589820D01*
X8728443Y-12589820D01*
X8728443Y-12679623D01*
X8818247Y-12679623D01*
X10068902Y-6424902D02*
X10068902Y-6335098D01*
X9979098Y-6335098D01*
X9979098Y-6424902D01*
X10068902Y-6424902D01*
X10068902Y-8124902D02*
X10068902Y-8035098D01*
X9979098Y-8035098D01*
X9979098Y-8124902D01*
X10068902Y-8124902D01*
X10068902Y-9824902D02*
X10068902Y-9735098D01*
X9979098Y-9735098D01*
X9979098Y-9824902D01*
X10068902Y-9824902D01*
X10242484Y-11905953D02*
X10242484Y-11816149D01*
X10152681Y-11816149D01*
X10152681Y-11905953D01*
X10242484Y-11905953D01*
X10568902Y-6634902D02*
X10568902Y-6545098D01*
X10479098Y-6545098D01*
X10479098Y-6634902D01*
X10568902Y-6634902D01*
X10568902Y-8334902D02*
X10568902Y-8245098D01*
X10479098Y-8245098D01*
X10479098Y-8334902D01*
X10568902Y-8334902D01*
X10568902Y-10034902D02*
X10568902Y-9945098D01*
X10479098Y-9945098D01*
X10479098Y-10034902D01*
X10568902Y-10034902D01*
X10771354Y-12025938D02*
X10771354Y-11936135D01*
X10681551Y-11936135D01*
X10681551Y-12025938D01*
X10771354Y-12025938D01*
X11868902Y-6224902D02*
X11868902Y-6135098D01*
X11779098Y-6135098D01*
X11779098Y-6224902D01*
X11868902Y-6224902D01*
X11868902Y-7924902D02*
X11868902Y-7835098D01*
X11779098Y-7835098D01*
X11779098Y-7924902D01*
X11868902Y-7924902D01*
X11868902Y-9624902D02*
X11868902Y-9535098D01*
X11779098Y-9535098D01*
X11779098Y-9624902D01*
X11868902Y-9624902D01*
X12337685Y-11679878D02*
X12337685Y-11590074D01*
X12247882Y-11590074D01*
X12247882Y-11679878D01*
X12337685Y-11679878D01*
X12368902Y-6434902D02*
X12368902Y-6345098D01*
X12279098Y-6345098D01*
X12279098Y-6434902D01*
X12368902Y-6434902D01*
X12368902Y-8134902D02*
X12368902Y-8045098D01*
X12279098Y-8045098D01*
X12279098Y-8134902D01*
X12368902Y-8134902D01*
X12368902Y-9834902D02*
X12368902Y-9745098D01*
X12279098Y-9745098D01*
X12279098Y-9834902D01*
X12368902Y-9834902D01*
X12817480Y-11932657D02*
X12817480Y-11842853D01*
X12727676Y-11842853D01*
X12727676Y-11932657D01*
X12817480Y-11932657D01*
X13668902Y-5724902D02*
X13668902Y-5635098D01*
X13579098Y-5635098D01*
X13579098Y-5724902D01*
X13668902Y-5724902D01*
X13668902Y-7424902D02*
X13668902Y-7335098D01*
X13579098Y-7335098D01*
X13579098Y-7424902D01*
X13668902Y-7424902D01*
X13668902Y-9124902D02*
X13668902Y-9035098D01*
X13579098Y-9035098D01*
X13579098Y-9124902D01*
X13668902Y-9124902D01*
X14168902Y-5934902D02*
X14168902Y-5845098D01*
X14079098Y-5845098D01*
X14079098Y-5934902D01*
X14168902Y-5934902D01*
X14168902Y-7634902D02*
X14168902Y-7545098D01*
X14079098Y-7545098D01*
X14079098Y-7634902D01*
X14168902Y-7634902D01*
X14168902Y-9334902D02*
X14168902Y-9245098D01*
X14079098Y-9245098D01*
X14079098Y-9334902D01*
X14168902Y-9334902D01*
X15468902Y-6224902D02*
X15468902Y-6135098D01*
X15379098Y-6135098D01*
X15379098Y-6224902D01*
X15468902Y-6224902D01*
X15468902Y-7924902D02*
X15468902Y-7835098D01*
X15379098Y-7835098D01*
X15379098Y-7924902D01*
X15468902Y-7924902D01*
X15468902Y-9624902D02*
X15468902Y-9535098D01*
X15379098Y-9535098D01*
X15379098Y-9624902D01*
X15468902Y-9624902D01*
X15968902Y-6434902D02*
X15968902Y-6345098D01*
X15879098Y-6345098D01*
X15879098Y-6434902D01*
X15968902Y-6434902D01*
X15968902Y-8134902D02*
X15968902Y-8045098D01*
X15879098Y-8045098D01*
X15879098Y-8134902D01*
X15968902Y-8134902D01*
X15968902Y-9834902D02*
X15968902Y-9745098D01*
X15879098Y-9745098D01*
X15879098Y-9834902D01*
X15968902Y-9834902D01*
X17268902Y-7424902D02*
X17268902Y-7335098D01*
X17179098Y-7335098D01*
X17179098Y-7424902D01*
X17268902Y-7424902D01*
X17268902Y-9124902D02*
X17268902Y-9035098D01*
X17179098Y-9035098D01*
X17179098Y-9124902D01*
X17268902Y-9124902D01*
X17268902Y-10824902D02*
X17268902Y-10735098D01*
X17179098Y-10735098D01*
X17179098Y-10824902D01*
X17268902Y-10824902D01*
X17768902Y-7634902D02*
X17768902Y-7545098D01*
X17679098Y-7545098D01*
X17679098Y-7634902D01*
X17768902Y-7634902D01*
X17768902Y-9334902D02*
X17768902Y-9245098D01*
X17679098Y-9245098D01*
X17679098Y-9334902D01*
X17768902Y-9334902D01*
X17768902Y-11034902D02*
X17768902Y-10945098D01*
X17679098Y-10945098D01*
X17679098Y-11034902D01*
X17768902Y-11034902D01*
X19068902Y-7424902D02*
X19068902Y-7335098D01*
X18979098Y-7335098D01*
X18979098Y-7424902D01*
X19068902Y-7424902D01*
X19068902Y-9124902D02*
X19068902Y-9035098D01*
X18979098Y-9035098D01*
X18979098Y-9124902D01*
X19068902Y-9124902D01*
X19068902Y-10824902D02*
X19068902Y-10735098D01*
X18979098Y-10735098D01*
X18979098Y-10824902D01*
X19068902Y-10824902D01*
X19568902Y-7634902D02*
X19568902Y-7545098D01*
X19479098Y-7545098D01*
X19479098Y-7634902D01*
X19568902Y-7634902D01*
X19568902Y-9334902D02*
X19568902Y-9245098D01*
X19479098Y-9245098D01*
X19479098Y-9334902D01*
X19568902Y-9334902D01*
X19568902Y-11034902D02*
X19568902Y-10945098D01*
X19479098Y-10945098D01*
X19479098Y-11034902D01*
X19568902Y-11034902D01*
D11*
X6899777Y-13647860D02*
X6899777Y-13447860D01*
X6899777Y-13447860D02*
X6947396Y-13447860D01*
X6947396Y-13447860D02*
X6975967Y-13457384D01*
X6975967Y-13457384D02*
X6995015Y-13476432D01*
X6995015Y-13476432D02*
X7004539Y-13495479D01*
X7004539Y-13495479D02*
X7014062Y-13533574D01*
X7014062Y-13533574D02*
X7014062Y-13562146D01*
X7014062Y-13562146D02*
X7004539Y-13600241D01*
X7004539Y-13600241D02*
X6995015Y-13619289D01*
X6995015Y-13619289D02*
X6975967Y-13638336D01*
X6975967Y-13638336D02*
X6947396Y-13647860D01*
X6947396Y-13647860D02*
X6899777Y-13647860D01*
X7099777Y-13647860D02*
X7099777Y-13514527D01*
X7099777Y-13552622D02*
X7109301Y-13533574D01*
X7109301Y-13533574D02*
X7118824Y-13524051D01*
X7118824Y-13524051D02*
X7137872Y-13514527D01*
X7137872Y-13514527D02*
X7156920Y-13514527D01*
X7223586Y-13647860D02*
X7223586Y-13514527D01*
X7223586Y-13447860D02*
X7214062Y-13457384D01*
X7214062Y-13457384D02*
X7223586Y-13466908D01*
X7223586Y-13466908D02*
X7233110Y-13457384D01*
X7233110Y-13457384D02*
X7223586Y-13447860D01*
X7223586Y-13447860D02*
X7223586Y-13466908D01*
X7347396Y-13647860D02*
X7328348Y-13638336D01*
X7328348Y-13638336D02*
X7318824Y-13619289D01*
X7318824Y-13619289D02*
X7318824Y-13447860D01*
X7452158Y-13647860D02*
X7433110Y-13638336D01*
X7433110Y-13638336D02*
X7423586Y-13619289D01*
X7423586Y-13619289D02*
X7423586Y-13447860D01*
X7680729Y-13647860D02*
X7680729Y-13447860D01*
X7680729Y-13447860D02*
X7747396Y-13590717D01*
X7747396Y-13590717D02*
X7814062Y-13447860D01*
X7814062Y-13447860D02*
X7814062Y-13647860D01*
X7995015Y-13647860D02*
X7995015Y-13543098D01*
X7995015Y-13543098D02*
X7985491Y-13524051D01*
X7985491Y-13524051D02*
X7966443Y-13514527D01*
X7966443Y-13514527D02*
X7928348Y-13514527D01*
X7928348Y-13514527D02*
X7909301Y-13524051D01*
X7995015Y-13638336D02*
X7975967Y-13647860D01*
X7975967Y-13647860D02*
X7928348Y-13647860D01*
X7928348Y-13647860D02*
X7909301Y-13638336D01*
X7909301Y-13638336D02*
X7899777Y-13619289D01*
X7899777Y-13619289D02*
X7899777Y-13600241D01*
X7899777Y-13600241D02*
X7909301Y-13581194D01*
X7909301Y-13581194D02*
X7928348Y-13571670D01*
X7928348Y-13571670D02*
X7975967Y-13571670D01*
X7975967Y-13571670D02*
X7995015Y-13562146D01*
X8090253Y-13514527D02*
X8090253Y-13714527D01*
X8090253Y-13524051D02*
X8109301Y-13514527D01*
X8109301Y-13514527D02*
X8147396Y-13514527D01*
X8147396Y-13514527D02*
X8166443Y-13524051D01*
X8166443Y-13524051D02*
X8175967Y-13533574D01*
X8175967Y-13533574D02*
X8185491Y-13552622D01*
X8185491Y-13552622D02*
X8185491Y-13609765D01*
X8185491Y-13609765D02*
X8175967Y-13628813D01*
X8175967Y-13628813D02*
X8166443Y-13638336D01*
X8166443Y-13638336D02*
X8147396Y-13647860D01*
X8147396Y-13647860D02*
X8109301Y-13647860D01*
X8109301Y-13647860D02*
X8090253Y-13638336D01*
X8271205Y-13628813D02*
X8280729Y-13638336D01*
X8280729Y-13638336D02*
X8271205Y-13647860D01*
X8271205Y-13647860D02*
X8261682Y-13638336D01*
X8261682Y-13638336D02*
X8271205Y-13628813D01*
X8271205Y-13628813D02*
X8271205Y-13647860D01*
X8271205Y-13524051D02*
X8280729Y-13533574D01*
X8280729Y-13533574D02*
X8271205Y-13543098D01*
X8271205Y-13543098D02*
X8261682Y-13533574D01*
X8261682Y-13533574D02*
X8271205Y-13524051D01*
X8271205Y-13524051D02*
X8271205Y-13543098D01*
D10*
X6609000Y-13961376D02*
X6639000Y-13991376D01*
X6639000Y-13961376D02*
X6609000Y-13991376D01*
D11*
X6937872Y-13867860D02*
X6956920Y-13867860D01*
X6956920Y-13867860D02*
X6975967Y-13877384D01*
X6975967Y-13877384D02*
X6985491Y-13886908D01*
X6985491Y-13886908D02*
X6995015Y-13905955D01*
X6995015Y-13905955D02*
X7004539Y-13944051D01*
X7004539Y-13944051D02*
X7004539Y-13991670D01*
X7004539Y-13991670D02*
X6995015Y-14029765D01*
X6995015Y-14029765D02*
X6985491Y-14048813D01*
X6985491Y-14048813D02*
X6975967Y-14058336D01*
X6975967Y-14058336D02*
X6956920Y-14067860D01*
X6956920Y-14067860D02*
X6937872Y-14067860D01*
X6937872Y-14067860D02*
X6918824Y-14058336D01*
X6918824Y-14058336D02*
X6909301Y-14048813D01*
X6909301Y-14048813D02*
X6899777Y-14029765D01*
X6899777Y-14029765D02*
X6890253Y-13991670D01*
X6890253Y-13991670D02*
X6890253Y-13944051D01*
X6890253Y-13944051D02*
X6899777Y-13905955D01*
X6899777Y-13905955D02*
X6909301Y-13886908D01*
X6909301Y-13886908D02*
X6918824Y-13877384D01*
X6918824Y-13877384D02*
X6937872Y-13867860D01*
X7090253Y-14048813D02*
X7099777Y-14058336D01*
X7099777Y-14058336D02*
X7090253Y-14067860D01*
X7090253Y-14067860D02*
X7080729Y-14058336D01*
X7080729Y-14058336D02*
X7090253Y-14048813D01*
X7090253Y-14048813D02*
X7090253Y-14067860D01*
X7166443Y-13867860D02*
X7290253Y-13867860D01*
X7290253Y-13867860D02*
X7223586Y-13944051D01*
X7223586Y-13944051D02*
X7252158Y-13944051D01*
X7252158Y-13944051D02*
X7271205Y-13953574D01*
X7271205Y-13953574D02*
X7280729Y-13963098D01*
X7280729Y-13963098D02*
X7290253Y-13982146D01*
X7290253Y-13982146D02*
X7290253Y-14029765D01*
X7290253Y-14029765D02*
X7280729Y-14048813D01*
X7280729Y-14048813D02*
X7271205Y-14058336D01*
X7271205Y-14058336D02*
X7252158Y-14067860D01*
X7252158Y-14067860D02*
X7195015Y-14067860D01*
X7195015Y-14067860D02*
X7175967Y-14058336D01*
X7175967Y-14058336D02*
X7166443Y-14048813D01*
X7414062Y-13867860D02*
X7433110Y-13867860D01*
X7433110Y-13867860D02*
X7452158Y-13877384D01*
X7452158Y-13877384D02*
X7461682Y-13886908D01*
X7461682Y-13886908D02*
X7471205Y-13905955D01*
X7471205Y-13905955D02*
X7480729Y-13944051D01*
X7480729Y-13944051D02*
X7480729Y-13991670D01*
X7480729Y-13991670D02*
X7471205Y-14029765D01*
X7471205Y-14029765D02*
X7461682Y-14048813D01*
X7461682Y-14048813D02*
X7452158Y-14058336D01*
X7452158Y-14058336D02*
X7433110Y-14067860D01*
X7433110Y-14067860D02*
X7414062Y-14067860D01*
X7414062Y-14067860D02*
X7395015Y-14058336D01*
X7395015Y-14058336D02*
X7385491Y-14048813D01*
X7385491Y-14048813D02*
X7375967Y-14029765D01*
X7375967Y-14029765D02*
X7366443Y-13991670D01*
X7366443Y-13991670D02*
X7366443Y-13944051D01*
X7366443Y-13944051D02*
X7375967Y-13905955D01*
X7375967Y-13905955D02*
X7385491Y-13886908D01*
X7385491Y-13886908D02*
X7395015Y-13877384D01*
X7395015Y-13877384D02*
X7414062Y-13867860D01*
X7604539Y-13867860D02*
X7623586Y-13867860D01*
X7623586Y-13867860D02*
X7642634Y-13877384D01*
X7642634Y-13877384D02*
X7652158Y-13886908D01*
X7652158Y-13886908D02*
X7661682Y-13905955D01*
X7661682Y-13905955D02*
X7671205Y-13944051D01*
X7671205Y-13944051D02*
X7671205Y-13991670D01*
X7671205Y-13991670D02*
X7661682Y-14029765D01*
X7661682Y-14029765D02*
X7652158Y-14048813D01*
X7652158Y-14048813D02*
X7642634Y-14058336D01*
X7642634Y-14058336D02*
X7623586Y-14067860D01*
X7623586Y-14067860D02*
X7604539Y-14067860D01*
X7604539Y-14067860D02*
X7585491Y-14058336D01*
X7585491Y-14058336D02*
X7575967Y-14048813D01*
X7575967Y-14048813D02*
X7566443Y-14029765D01*
X7566443Y-14029765D02*
X7556920Y-13991670D01*
X7556920Y-13991670D02*
X7556920Y-13944051D01*
X7556920Y-13944051D02*
X7566443Y-13905955D01*
X7566443Y-13905955D02*
X7575967Y-13886908D01*
X7575967Y-13886908D02*
X7585491Y-13877384D01*
X7585491Y-13877384D02*
X7604539Y-13867860D01*
X7756920Y-14067860D02*
X7756920Y-13934527D01*
X7756920Y-13953574D02*
X7766443Y-13944051D01*
X7766443Y-13944051D02*
X7785491Y-13934527D01*
X7785491Y-13934527D02*
X7814063Y-13934527D01*
X7814063Y-13934527D02*
X7833110Y-13944051D01*
X7833110Y-13944051D02*
X7842634Y-13963098D01*
X7842634Y-13963098D02*
X7842634Y-14067860D01*
X7842634Y-13963098D02*
X7852158Y-13944051D01*
X7852158Y-13944051D02*
X7871205Y-13934527D01*
X7871205Y-13934527D02*
X7899777Y-13934527D01*
X7899777Y-13934527D02*
X7918824Y-13944051D01*
X7918824Y-13944051D02*
X7928348Y-13963098D01*
X7928348Y-13963098D02*
X7928348Y-14067860D01*
X8023586Y-14067860D02*
X8023586Y-13934527D01*
X8023586Y-13953574D02*
X8033110Y-13944051D01*
X8033110Y-13944051D02*
X8052158Y-13934527D01*
X8052158Y-13934527D02*
X8080729Y-13934527D01*
X8080729Y-13934527D02*
X8099777Y-13944051D01*
X8099777Y-13944051D02*
X8109301Y-13963098D01*
X8109301Y-13963098D02*
X8109301Y-14067860D01*
X8109301Y-13963098D02*
X8118824Y-13944051D01*
X8118824Y-13944051D02*
X8137872Y-13934527D01*
X8137872Y-13934527D02*
X8166443Y-13934527D01*
X8166443Y-13934527D02*
X8185491Y-13944051D01*
X8185491Y-13944051D02*
X8195015Y-13963098D01*
X8195015Y-13963098D02*
X8195015Y-14067860D01*
X8585491Y-13858336D02*
X8414063Y-14115479D01*
X8842634Y-13867860D02*
X8861682Y-13867860D01*
X8861682Y-13867860D02*
X8880729Y-13877384D01*
X8880729Y-13877384D02*
X8890253Y-13886908D01*
X8890253Y-13886908D02*
X8899777Y-13905955D01*
X8899777Y-13905955D02*
X8909301Y-13944051D01*
X8909301Y-13944051D02*
X8909301Y-13991670D01*
X8909301Y-13991670D02*
X8899777Y-14029765D01*
X8899777Y-14029765D02*
X8890253Y-14048813D01*
X8890253Y-14048813D02*
X8880729Y-14058336D01*
X8880729Y-14058336D02*
X8861682Y-14067860D01*
X8861682Y-14067860D02*
X8842634Y-14067860D01*
X8842634Y-14067860D02*
X8823587Y-14058336D01*
X8823587Y-14058336D02*
X8814063Y-14048813D01*
X8814063Y-14048813D02*
X8804539Y-14029765D01*
X8804539Y-14029765D02*
X8795015Y-13991670D01*
X8795015Y-13991670D02*
X8795015Y-13944051D01*
X8795015Y-13944051D02*
X8804539Y-13905955D01*
X8804539Y-13905955D02*
X8814063Y-13886908D01*
X8814063Y-13886908D02*
X8823587Y-13877384D01*
X8823587Y-13877384D02*
X8842634Y-13867860D01*
X8995015Y-14048813D02*
X9004539Y-14058336D01*
X9004539Y-14058336D02*
X8995015Y-14067860D01*
X8995015Y-14067860D02*
X8985491Y-14058336D01*
X8985491Y-14058336D02*
X8995015Y-14048813D01*
X8995015Y-14048813D02*
X8995015Y-14067860D01*
X9128348Y-13867860D02*
X9147396Y-13867860D01*
X9147396Y-13867860D02*
X9166444Y-13877384D01*
X9166444Y-13877384D02*
X9175968Y-13886908D01*
X9175968Y-13886908D02*
X9185491Y-13905955D01*
X9185491Y-13905955D02*
X9195015Y-13944051D01*
X9195015Y-13944051D02*
X9195015Y-13991670D01*
X9195015Y-13991670D02*
X9185491Y-14029765D01*
X9185491Y-14029765D02*
X9175968Y-14048813D01*
X9175968Y-14048813D02*
X9166444Y-14058336D01*
X9166444Y-14058336D02*
X9147396Y-14067860D01*
X9147396Y-14067860D02*
X9128348Y-14067860D01*
X9128348Y-14067860D02*
X9109301Y-14058336D01*
X9109301Y-14058336D02*
X9099777Y-14048813D01*
X9099777Y-14048813D02*
X9090253Y-14029765D01*
X9090253Y-14029765D02*
X9080729Y-13991670D01*
X9080729Y-13991670D02*
X9080729Y-13944051D01*
X9080729Y-13944051D02*
X9090253Y-13905955D01*
X9090253Y-13905955D02*
X9099777Y-13886908D01*
X9099777Y-13886908D02*
X9109301Y-13877384D01*
X9109301Y-13877384D02*
X9128348Y-13867860D01*
X9385491Y-14067860D02*
X9271206Y-14067860D01*
X9328348Y-14067860D02*
X9328348Y-13867860D01*
X9328348Y-13867860D02*
X9309301Y-13896432D01*
X9309301Y-13896432D02*
X9290253Y-13915479D01*
X9290253Y-13915479D02*
X9271206Y-13925003D01*
X9575968Y-14067860D02*
X9461682Y-14067860D01*
X9518825Y-14067860D02*
X9518825Y-13867860D01*
X9518825Y-13867860D02*
X9499777Y-13896432D01*
X9499777Y-13896432D02*
X9480729Y-13915479D01*
X9480729Y-13915479D02*
X9461682Y-13925003D01*
X9690253Y-13953574D02*
X9671206Y-13944051D01*
X9671206Y-13944051D02*
X9661682Y-13934527D01*
X9661682Y-13934527D02*
X9652158Y-13915479D01*
X9652158Y-13915479D02*
X9652158Y-13905955D01*
X9652158Y-13905955D02*
X9661682Y-13886908D01*
X9661682Y-13886908D02*
X9671206Y-13877384D01*
X9671206Y-13877384D02*
X9690253Y-13867860D01*
X9690253Y-13867860D02*
X9728349Y-13867860D01*
X9728349Y-13867860D02*
X9747396Y-13877384D01*
X9747396Y-13877384D02*
X9756920Y-13886908D01*
X9756920Y-13886908D02*
X9766444Y-13905955D01*
X9766444Y-13905955D02*
X9766444Y-13915479D01*
X9766444Y-13915479D02*
X9756920Y-13934527D01*
X9756920Y-13934527D02*
X9747396Y-13944051D01*
X9747396Y-13944051D02*
X9728349Y-13953574D01*
X9728349Y-13953574D02*
X9690253Y-13953574D01*
X9690253Y-13953574D02*
X9671206Y-13963098D01*
X9671206Y-13963098D02*
X9661682Y-13972622D01*
X9661682Y-13972622D02*
X9652158Y-13991670D01*
X9652158Y-13991670D02*
X9652158Y-14029765D01*
X9652158Y-14029765D02*
X9661682Y-14048813D01*
X9661682Y-14048813D02*
X9671206Y-14058336D01*
X9671206Y-14058336D02*
X9690253Y-14067860D01*
X9690253Y-14067860D02*
X9728349Y-14067860D01*
X9728349Y-14067860D02*
X9747396Y-14058336D01*
X9747396Y-14058336D02*
X9756920Y-14048813D01*
X9756920Y-14048813D02*
X9766444Y-14029765D01*
X9766444Y-14029765D02*
X9766444Y-13991670D01*
X9766444Y-13991670D02*
X9756920Y-13972622D01*
X9756920Y-13972622D02*
X9747396Y-13963098D01*
X9747396Y-13963098D02*
X9728349Y-13953574D01*
X9842634Y-13867860D02*
X9842634Y-13905955D01*
X9918825Y-13867860D02*
X9918825Y-13905955D01*
X10214063Y-14144051D02*
X10204539Y-14134527D01*
X10204539Y-14134527D02*
X10185491Y-14105955D01*
X10185491Y-14105955D02*
X10175968Y-14086908D01*
X10175968Y-14086908D02*
X10166444Y-14058336D01*
X10166444Y-14058336D02*
X10156920Y-14010717D01*
X10156920Y-14010717D02*
X10156920Y-13972622D01*
X10156920Y-13972622D02*
X10166444Y-13925003D01*
X10166444Y-13925003D02*
X10175968Y-13896432D01*
X10175968Y-13896432D02*
X10185491Y-13877384D01*
X10185491Y-13877384D02*
X10204539Y-13848813D01*
X10204539Y-13848813D02*
X10214063Y-13839289D01*
X10395015Y-14067860D02*
X10280730Y-14067860D01*
X10337872Y-14067860D02*
X10337872Y-13867860D01*
X10337872Y-13867860D02*
X10318825Y-13896432D01*
X10318825Y-13896432D02*
X10299777Y-13915479D01*
X10299777Y-13915479D02*
X10280730Y-13925003D01*
X10461682Y-13867860D02*
X10585491Y-13867860D01*
X10585491Y-13867860D02*
X10518825Y-13944051D01*
X10518825Y-13944051D02*
X10547396Y-13944051D01*
X10547396Y-13944051D02*
X10566444Y-13953574D01*
X10566444Y-13953574D02*
X10575968Y-13963098D01*
X10575968Y-13963098D02*
X10585491Y-13982146D01*
X10585491Y-13982146D02*
X10585491Y-14029765D01*
X10585491Y-14029765D02*
X10575968Y-14048813D01*
X10575968Y-14048813D02*
X10566444Y-14058336D01*
X10566444Y-14058336D02*
X10547396Y-14067860D01*
X10547396Y-14067860D02*
X10490253Y-14067860D01*
X10490253Y-14067860D02*
X10471206Y-14058336D01*
X10471206Y-14058336D02*
X10461682Y-14048813D01*
X10823587Y-14067860D02*
X10823587Y-13867860D01*
X10909301Y-14067860D02*
X10909301Y-13963098D01*
X10909301Y-13963098D02*
X10899777Y-13944051D01*
X10899777Y-13944051D02*
X10880730Y-13934527D01*
X10880730Y-13934527D02*
X10852158Y-13934527D01*
X10852158Y-13934527D02*
X10833111Y-13944051D01*
X10833111Y-13944051D02*
X10823587Y-13953574D01*
X11033111Y-14067860D02*
X11014063Y-14058336D01*
X11014063Y-14058336D02*
X11004539Y-14048813D01*
X11004539Y-14048813D02*
X10995015Y-14029765D01*
X10995015Y-14029765D02*
X10995015Y-13972622D01*
X10995015Y-13972622D02*
X11004539Y-13953574D01*
X11004539Y-13953574D02*
X11014063Y-13944051D01*
X11014063Y-13944051D02*
X11033111Y-13934527D01*
X11033111Y-13934527D02*
X11061682Y-13934527D01*
X11061682Y-13934527D02*
X11080730Y-13944051D01*
X11080730Y-13944051D02*
X11090253Y-13953574D01*
X11090253Y-13953574D02*
X11099777Y-13972622D01*
X11099777Y-13972622D02*
X11099777Y-14029765D01*
X11099777Y-14029765D02*
X11090253Y-14048813D01*
X11090253Y-14048813D02*
X11080730Y-14058336D01*
X11080730Y-14058336D02*
X11061682Y-14067860D01*
X11061682Y-14067860D02*
X11033111Y-14067860D01*
X11214063Y-14067860D02*
X11195015Y-14058336D01*
X11195015Y-14058336D02*
X11185491Y-14039289D01*
X11185491Y-14039289D02*
X11185491Y-13867860D01*
X11366444Y-14058336D02*
X11347396Y-14067860D01*
X11347396Y-14067860D02*
X11309301Y-14067860D01*
X11309301Y-14067860D02*
X11290253Y-14058336D01*
X11290253Y-14058336D02*
X11280730Y-14039289D01*
X11280730Y-14039289D02*
X11280730Y-13963098D01*
X11280730Y-13963098D02*
X11290253Y-13944051D01*
X11290253Y-13944051D02*
X11309301Y-13934527D01*
X11309301Y-13934527D02*
X11347396Y-13934527D01*
X11347396Y-13934527D02*
X11366444Y-13944051D01*
X11366444Y-13944051D02*
X11375968Y-13963098D01*
X11375968Y-13963098D02*
X11375968Y-13982146D01*
X11375968Y-13982146D02*
X11280730Y-14001194D01*
X11452158Y-14058336D02*
X11471206Y-14067860D01*
X11471206Y-14067860D02*
X11509301Y-14067860D01*
X11509301Y-14067860D02*
X11528349Y-14058336D01*
X11528349Y-14058336D02*
X11537872Y-14039289D01*
X11537872Y-14039289D02*
X11537872Y-14029765D01*
X11537872Y-14029765D02*
X11528349Y-14010717D01*
X11528349Y-14010717D02*
X11509301Y-14001194D01*
X11509301Y-14001194D02*
X11480730Y-14001194D01*
X11480730Y-14001194D02*
X11461682Y-13991670D01*
X11461682Y-13991670D02*
X11452158Y-13972622D01*
X11452158Y-13972622D02*
X11452158Y-13963098D01*
X11452158Y-13963098D02*
X11461682Y-13944051D01*
X11461682Y-13944051D02*
X11480730Y-13934527D01*
X11480730Y-13934527D02*
X11509301Y-13934527D01*
X11509301Y-13934527D02*
X11528349Y-13944051D01*
X11604539Y-14144051D02*
X11614063Y-14134527D01*
X11614063Y-14134527D02*
X11633111Y-14105955D01*
X11633111Y-14105955D02*
X11642634Y-14086908D01*
X11642634Y-14086908D02*
X11652158Y-14058336D01*
X11652158Y-14058336D02*
X11661682Y-14010717D01*
X11661682Y-14010717D02*
X11661682Y-13972622D01*
X11661682Y-13972622D02*
X11652158Y-13925003D01*
X11652158Y-13925003D02*
X11642634Y-13896432D01*
X11642634Y-13896432D02*
X11633111Y-13877384D01*
X11633111Y-13877384D02*
X11614063Y-13848813D01*
X11614063Y-13848813D02*
X11604539Y-13839289D01*
D10*
X6639000Y-14240376D02*
G75*
G02*
X6579000Y-14240376I-30000J0D01*
G01*
X6579000Y-14240376D02*
G75*
G02*
X6639000Y-14240376I30000J0D01*
G01*
D11*
X6937872Y-14131860D02*
X6956920Y-14131860D01*
X6956920Y-14131860D02*
X6975967Y-14141384D01*
X6975967Y-14141384D02*
X6985491Y-14150908D01*
X6985491Y-14150908D02*
X6995015Y-14169955D01*
X6995015Y-14169955D02*
X7004539Y-14208051D01*
X7004539Y-14208051D02*
X7004539Y-14255670D01*
X7004539Y-14255670D02*
X6995015Y-14293765D01*
X6995015Y-14293765D02*
X6985491Y-14312813D01*
X6985491Y-14312813D02*
X6975967Y-14322336D01*
X6975967Y-14322336D02*
X6956920Y-14331860D01*
X6956920Y-14331860D02*
X6937872Y-14331860D01*
X6937872Y-14331860D02*
X6918824Y-14322336D01*
X6918824Y-14322336D02*
X6909301Y-14312813D01*
X6909301Y-14312813D02*
X6899777Y-14293765D01*
X6899777Y-14293765D02*
X6890253Y-14255670D01*
X6890253Y-14255670D02*
X6890253Y-14208051D01*
X6890253Y-14208051D02*
X6899777Y-14169955D01*
X6899777Y-14169955D02*
X6909301Y-14150908D01*
X6909301Y-14150908D02*
X6918824Y-14141384D01*
X6918824Y-14141384D02*
X6937872Y-14131860D01*
X7090253Y-14312813D02*
X7099777Y-14322336D01*
X7099777Y-14322336D02*
X7090253Y-14331860D01*
X7090253Y-14331860D02*
X7080729Y-14322336D01*
X7080729Y-14322336D02*
X7090253Y-14312813D01*
X7090253Y-14312813D02*
X7090253Y-14331860D01*
X7271205Y-14131860D02*
X7233110Y-14131860D01*
X7233110Y-14131860D02*
X7214062Y-14141384D01*
X7214062Y-14141384D02*
X7204539Y-14150908D01*
X7204539Y-14150908D02*
X7185491Y-14179479D01*
X7185491Y-14179479D02*
X7175967Y-14217574D01*
X7175967Y-14217574D02*
X7175967Y-14293765D01*
X7175967Y-14293765D02*
X7185491Y-14312813D01*
X7185491Y-14312813D02*
X7195015Y-14322336D01*
X7195015Y-14322336D02*
X7214062Y-14331860D01*
X7214062Y-14331860D02*
X7252158Y-14331860D01*
X7252158Y-14331860D02*
X7271205Y-14322336D01*
X7271205Y-14322336D02*
X7280729Y-14312813D01*
X7280729Y-14312813D02*
X7290253Y-14293765D01*
X7290253Y-14293765D02*
X7290253Y-14246146D01*
X7290253Y-14246146D02*
X7280729Y-14227098D01*
X7280729Y-14227098D02*
X7271205Y-14217574D01*
X7271205Y-14217574D02*
X7252158Y-14208051D01*
X7252158Y-14208051D02*
X7214062Y-14208051D01*
X7214062Y-14208051D02*
X7195015Y-14217574D01*
X7195015Y-14217574D02*
X7185491Y-14227098D01*
X7185491Y-14227098D02*
X7175967Y-14246146D01*
X7414062Y-14131860D02*
X7433110Y-14131860D01*
X7433110Y-14131860D02*
X7452158Y-14141384D01*
X7452158Y-14141384D02*
X7461682Y-14150908D01*
X7461682Y-14150908D02*
X7471205Y-14169955D01*
X7471205Y-14169955D02*
X7480729Y-14208051D01*
X7480729Y-14208051D02*
X7480729Y-14255670D01*
X7480729Y-14255670D02*
X7471205Y-14293765D01*
X7471205Y-14293765D02*
X7461682Y-14312813D01*
X7461682Y-14312813D02*
X7452158Y-14322336D01*
X7452158Y-14322336D02*
X7433110Y-14331860D01*
X7433110Y-14331860D02*
X7414062Y-14331860D01*
X7414062Y-14331860D02*
X7395015Y-14322336D01*
X7395015Y-14322336D02*
X7385491Y-14312813D01*
X7385491Y-14312813D02*
X7375967Y-14293765D01*
X7375967Y-14293765D02*
X7366443Y-14255670D01*
X7366443Y-14255670D02*
X7366443Y-14208051D01*
X7366443Y-14208051D02*
X7375967Y-14169955D01*
X7375967Y-14169955D02*
X7385491Y-14150908D01*
X7385491Y-14150908D02*
X7395015Y-14141384D01*
X7395015Y-14141384D02*
X7414062Y-14131860D01*
X7604539Y-14131860D02*
X7623586Y-14131860D01*
X7623586Y-14131860D02*
X7642634Y-14141384D01*
X7642634Y-14141384D02*
X7652158Y-14150908D01*
X7652158Y-14150908D02*
X7661682Y-14169955D01*
X7661682Y-14169955D02*
X7671205Y-14208051D01*
X7671205Y-14208051D02*
X7671205Y-14255670D01*
X7671205Y-14255670D02*
X7661682Y-14293765D01*
X7661682Y-14293765D02*
X7652158Y-14312813D01*
X7652158Y-14312813D02*
X7642634Y-14322336D01*
X7642634Y-14322336D02*
X7623586Y-14331860D01*
X7623586Y-14331860D02*
X7604539Y-14331860D01*
X7604539Y-14331860D02*
X7585491Y-14322336D01*
X7585491Y-14322336D02*
X7575967Y-14312813D01*
X7575967Y-14312813D02*
X7566443Y-14293765D01*
X7566443Y-14293765D02*
X7556920Y-14255670D01*
X7556920Y-14255670D02*
X7556920Y-14208051D01*
X7556920Y-14208051D02*
X7566443Y-14169955D01*
X7566443Y-14169955D02*
X7575967Y-14150908D01*
X7575967Y-14150908D02*
X7585491Y-14141384D01*
X7585491Y-14141384D02*
X7604539Y-14131860D01*
X7756920Y-14331860D02*
X7756920Y-14198527D01*
X7756920Y-14217574D02*
X7766443Y-14208051D01*
X7766443Y-14208051D02*
X7785491Y-14198527D01*
X7785491Y-14198527D02*
X7814063Y-14198527D01*
X7814063Y-14198527D02*
X7833110Y-14208051D01*
X7833110Y-14208051D02*
X7842634Y-14227098D01*
X7842634Y-14227098D02*
X7842634Y-14331860D01*
X7842634Y-14227098D02*
X7852158Y-14208051D01*
X7852158Y-14208051D02*
X7871205Y-14198527D01*
X7871205Y-14198527D02*
X7899777Y-14198527D01*
X7899777Y-14198527D02*
X7918824Y-14208051D01*
X7918824Y-14208051D02*
X7928348Y-14227098D01*
X7928348Y-14227098D02*
X7928348Y-14331860D01*
X8023586Y-14331860D02*
X8023586Y-14198527D01*
X8023586Y-14217574D02*
X8033110Y-14208051D01*
X8033110Y-14208051D02*
X8052158Y-14198527D01*
X8052158Y-14198527D02*
X8080729Y-14198527D01*
X8080729Y-14198527D02*
X8099777Y-14208051D01*
X8099777Y-14208051D02*
X8109301Y-14227098D01*
X8109301Y-14227098D02*
X8109301Y-14331860D01*
X8109301Y-14227098D02*
X8118824Y-14208051D01*
X8118824Y-14208051D02*
X8137872Y-14198527D01*
X8137872Y-14198527D02*
X8166443Y-14198527D01*
X8166443Y-14198527D02*
X8185491Y-14208051D01*
X8185491Y-14208051D02*
X8195015Y-14227098D01*
X8195015Y-14227098D02*
X8195015Y-14331860D01*
X8585491Y-14122336D02*
X8414063Y-14379479D01*
X8842634Y-14131860D02*
X8861682Y-14131860D01*
X8861682Y-14131860D02*
X8880729Y-14141384D01*
X8880729Y-14141384D02*
X8890253Y-14150908D01*
X8890253Y-14150908D02*
X8899777Y-14169955D01*
X8899777Y-14169955D02*
X8909301Y-14208051D01*
X8909301Y-14208051D02*
X8909301Y-14255670D01*
X8909301Y-14255670D02*
X8899777Y-14293765D01*
X8899777Y-14293765D02*
X8890253Y-14312813D01*
X8890253Y-14312813D02*
X8880729Y-14322336D01*
X8880729Y-14322336D02*
X8861682Y-14331860D01*
X8861682Y-14331860D02*
X8842634Y-14331860D01*
X8842634Y-14331860D02*
X8823587Y-14322336D01*
X8823587Y-14322336D02*
X8814063Y-14312813D01*
X8814063Y-14312813D02*
X8804539Y-14293765D01*
X8804539Y-14293765D02*
X8795015Y-14255670D01*
X8795015Y-14255670D02*
X8795015Y-14208051D01*
X8795015Y-14208051D02*
X8804539Y-14169955D01*
X8804539Y-14169955D02*
X8814063Y-14150908D01*
X8814063Y-14150908D02*
X8823587Y-14141384D01*
X8823587Y-14141384D02*
X8842634Y-14131860D01*
X8995015Y-14312813D02*
X9004539Y-14322336D01*
X9004539Y-14322336D02*
X8995015Y-14331860D01*
X8995015Y-14331860D02*
X8985491Y-14322336D01*
X8985491Y-14322336D02*
X8995015Y-14312813D01*
X8995015Y-14312813D02*
X8995015Y-14331860D01*
X9128348Y-14131860D02*
X9147396Y-14131860D01*
X9147396Y-14131860D02*
X9166444Y-14141384D01*
X9166444Y-14141384D02*
X9175968Y-14150908D01*
X9175968Y-14150908D02*
X9185491Y-14169955D01*
X9185491Y-14169955D02*
X9195015Y-14208051D01*
X9195015Y-14208051D02*
X9195015Y-14255670D01*
X9195015Y-14255670D02*
X9185491Y-14293765D01*
X9185491Y-14293765D02*
X9175968Y-14312813D01*
X9175968Y-14312813D02*
X9166444Y-14322336D01*
X9166444Y-14322336D02*
X9147396Y-14331860D01*
X9147396Y-14331860D02*
X9128348Y-14331860D01*
X9128348Y-14331860D02*
X9109301Y-14322336D01*
X9109301Y-14322336D02*
X9099777Y-14312813D01*
X9099777Y-14312813D02*
X9090253Y-14293765D01*
X9090253Y-14293765D02*
X9080729Y-14255670D01*
X9080729Y-14255670D02*
X9080729Y-14208051D01*
X9080729Y-14208051D02*
X9090253Y-14169955D01*
X9090253Y-14169955D02*
X9099777Y-14150908D01*
X9099777Y-14150908D02*
X9109301Y-14141384D01*
X9109301Y-14141384D02*
X9128348Y-14131860D01*
X9271206Y-14150908D02*
X9280729Y-14141384D01*
X9280729Y-14141384D02*
X9299777Y-14131860D01*
X9299777Y-14131860D02*
X9347396Y-14131860D01*
X9347396Y-14131860D02*
X9366444Y-14141384D01*
X9366444Y-14141384D02*
X9375968Y-14150908D01*
X9375968Y-14150908D02*
X9385491Y-14169955D01*
X9385491Y-14169955D02*
X9385491Y-14189003D01*
X9385491Y-14189003D02*
X9375968Y-14217574D01*
X9375968Y-14217574D02*
X9261682Y-14331860D01*
X9261682Y-14331860D02*
X9385491Y-14331860D01*
X9452158Y-14131860D02*
X9575968Y-14131860D01*
X9575968Y-14131860D02*
X9509301Y-14208051D01*
X9509301Y-14208051D02*
X9537872Y-14208051D01*
X9537872Y-14208051D02*
X9556920Y-14217574D01*
X9556920Y-14217574D02*
X9566444Y-14227098D01*
X9566444Y-14227098D02*
X9575968Y-14246146D01*
X9575968Y-14246146D02*
X9575968Y-14293765D01*
X9575968Y-14293765D02*
X9566444Y-14312813D01*
X9566444Y-14312813D02*
X9556920Y-14322336D01*
X9556920Y-14322336D02*
X9537872Y-14331860D01*
X9537872Y-14331860D02*
X9480729Y-14331860D01*
X9480729Y-14331860D02*
X9461682Y-14322336D01*
X9461682Y-14322336D02*
X9452158Y-14312813D01*
X9747396Y-14131860D02*
X9709301Y-14131860D01*
X9709301Y-14131860D02*
X9690253Y-14141384D01*
X9690253Y-14141384D02*
X9680729Y-14150908D01*
X9680729Y-14150908D02*
X9661682Y-14179479D01*
X9661682Y-14179479D02*
X9652158Y-14217574D01*
X9652158Y-14217574D02*
X9652158Y-14293765D01*
X9652158Y-14293765D02*
X9661682Y-14312813D01*
X9661682Y-14312813D02*
X9671206Y-14322336D01*
X9671206Y-14322336D02*
X9690253Y-14331860D01*
X9690253Y-14331860D02*
X9728349Y-14331860D01*
X9728349Y-14331860D02*
X9747396Y-14322336D01*
X9747396Y-14322336D02*
X9756920Y-14312813D01*
X9756920Y-14312813D02*
X9766444Y-14293765D01*
X9766444Y-14293765D02*
X9766444Y-14246146D01*
X9766444Y-14246146D02*
X9756920Y-14227098D01*
X9756920Y-14227098D02*
X9747396Y-14217574D01*
X9747396Y-14217574D02*
X9728349Y-14208051D01*
X9728349Y-14208051D02*
X9690253Y-14208051D01*
X9690253Y-14208051D02*
X9671206Y-14217574D01*
X9671206Y-14217574D02*
X9661682Y-14227098D01*
X9661682Y-14227098D02*
X9652158Y-14246146D01*
X9842634Y-14131860D02*
X9842634Y-14169955D01*
X9918825Y-14131860D02*
X9918825Y-14169955D01*
X10214063Y-14408051D02*
X10204539Y-14398527D01*
X10204539Y-14398527D02*
X10185491Y-14369955D01*
X10185491Y-14369955D02*
X10175968Y-14350908D01*
X10175968Y-14350908D02*
X10166444Y-14322336D01*
X10166444Y-14322336D02*
X10156920Y-14274717D01*
X10156920Y-14274717D02*
X10156920Y-14236622D01*
X10156920Y-14236622D02*
X10166444Y-14189003D01*
X10166444Y-14189003D02*
X10175968Y-14160432D01*
X10175968Y-14160432D02*
X10185491Y-14141384D01*
X10185491Y-14141384D02*
X10204539Y-14112813D01*
X10204539Y-14112813D02*
X10214063Y-14103289D01*
X10328349Y-14131860D02*
X10347396Y-14131860D01*
X10347396Y-14131860D02*
X10366444Y-14141384D01*
X10366444Y-14141384D02*
X10375968Y-14150908D01*
X10375968Y-14150908D02*
X10385491Y-14169955D01*
X10385491Y-14169955D02*
X10395015Y-14208051D01*
X10395015Y-14208051D02*
X10395015Y-14255670D01*
X10395015Y-14255670D02*
X10385491Y-14293765D01*
X10385491Y-14293765D02*
X10375968Y-14312813D01*
X10375968Y-14312813D02*
X10366444Y-14322336D01*
X10366444Y-14322336D02*
X10347396Y-14331860D01*
X10347396Y-14331860D02*
X10328349Y-14331860D01*
X10328349Y-14331860D02*
X10309301Y-14322336D01*
X10309301Y-14322336D02*
X10299777Y-14312813D01*
X10299777Y-14312813D02*
X10290253Y-14293765D01*
X10290253Y-14293765D02*
X10280730Y-14255670D01*
X10280730Y-14255670D02*
X10280730Y-14208051D01*
X10280730Y-14208051D02*
X10290253Y-14169955D01*
X10290253Y-14169955D02*
X10299777Y-14150908D01*
X10299777Y-14150908D02*
X10309301Y-14141384D01*
X10309301Y-14141384D02*
X10328349Y-14131860D01*
X10633111Y-14331860D02*
X10633111Y-14131860D01*
X10718825Y-14331860D02*
X10718825Y-14227098D01*
X10718825Y-14227098D02*
X10709301Y-14208051D01*
X10709301Y-14208051D02*
X10690253Y-14198527D01*
X10690253Y-14198527D02*
X10661682Y-14198527D01*
X10661682Y-14198527D02*
X10642634Y-14208051D01*
X10642634Y-14208051D02*
X10633111Y-14217574D01*
X10842634Y-14331860D02*
X10823587Y-14322336D01*
X10823587Y-14322336D02*
X10814063Y-14312813D01*
X10814063Y-14312813D02*
X10804539Y-14293765D01*
X10804539Y-14293765D02*
X10804539Y-14236622D01*
X10804539Y-14236622D02*
X10814063Y-14217574D01*
X10814063Y-14217574D02*
X10823587Y-14208051D01*
X10823587Y-14208051D02*
X10842634Y-14198527D01*
X10842634Y-14198527D02*
X10871206Y-14198527D01*
X10871206Y-14198527D02*
X10890253Y-14208051D01*
X10890253Y-14208051D02*
X10899777Y-14217574D01*
X10899777Y-14217574D02*
X10909301Y-14236622D01*
X10909301Y-14236622D02*
X10909301Y-14293765D01*
X10909301Y-14293765D02*
X10899777Y-14312813D01*
X10899777Y-14312813D02*
X10890253Y-14322336D01*
X10890253Y-14322336D02*
X10871206Y-14331860D01*
X10871206Y-14331860D02*
X10842634Y-14331860D01*
X11023587Y-14331860D02*
X11004539Y-14322336D01*
X11004539Y-14322336D02*
X10995015Y-14303289D01*
X10995015Y-14303289D02*
X10995015Y-14131860D01*
X11175968Y-14322336D02*
X11156920Y-14331860D01*
X11156920Y-14331860D02*
X11118825Y-14331860D01*
X11118825Y-14331860D02*
X11099777Y-14322336D01*
X11099777Y-14322336D02*
X11090253Y-14303289D01*
X11090253Y-14303289D02*
X11090253Y-14227098D01*
X11090253Y-14227098D02*
X11099777Y-14208051D01*
X11099777Y-14208051D02*
X11118825Y-14198527D01*
X11118825Y-14198527D02*
X11156920Y-14198527D01*
X11156920Y-14198527D02*
X11175968Y-14208051D01*
X11175968Y-14208051D02*
X11185491Y-14227098D01*
X11185491Y-14227098D02*
X11185491Y-14246146D01*
X11185491Y-14246146D02*
X11090253Y-14265194D01*
X11261682Y-14322336D02*
X11280730Y-14331860D01*
X11280730Y-14331860D02*
X11318825Y-14331860D01*
X11318825Y-14331860D02*
X11337872Y-14322336D01*
X11337872Y-14322336D02*
X11347396Y-14303289D01*
X11347396Y-14303289D02*
X11347396Y-14293765D01*
X11347396Y-14293765D02*
X11337872Y-14274717D01*
X11337872Y-14274717D02*
X11318825Y-14265194D01*
X11318825Y-14265194D02*
X11290253Y-14265194D01*
X11290253Y-14265194D02*
X11271206Y-14255670D01*
X11271206Y-14255670D02*
X11261682Y-14236622D01*
X11261682Y-14236622D02*
X11261682Y-14227098D01*
X11261682Y-14227098D02*
X11271206Y-14208051D01*
X11271206Y-14208051D02*
X11290253Y-14198527D01*
X11290253Y-14198527D02*
X11318825Y-14198527D01*
X11318825Y-14198527D02*
X11337872Y-14208051D01*
X11585492Y-14255670D02*
X11737873Y-14255670D01*
X11661682Y-14331860D02*
X11661682Y-14179479D01*
X12071206Y-14198527D02*
X12071206Y-14331860D01*
X12023587Y-14122336D02*
X11975968Y-14265194D01*
X11975968Y-14265194D02*
X12099777Y-14265194D01*
X12318825Y-14322336D02*
X12337873Y-14331860D01*
X12337873Y-14331860D02*
X12375968Y-14331860D01*
X12375968Y-14331860D02*
X12395015Y-14322336D01*
X12395015Y-14322336D02*
X12404539Y-14303289D01*
X12404539Y-14303289D02*
X12404539Y-14293765D01*
X12404539Y-14293765D02*
X12395015Y-14274717D01*
X12395015Y-14274717D02*
X12375968Y-14265194D01*
X12375968Y-14265194D02*
X12347396Y-14265194D01*
X12347396Y-14265194D02*
X12328349Y-14255670D01*
X12328349Y-14255670D02*
X12318825Y-14236622D01*
X12318825Y-14236622D02*
X12318825Y-14227098D01*
X12318825Y-14227098D02*
X12328349Y-14208051D01*
X12328349Y-14208051D02*
X12347396Y-14198527D01*
X12347396Y-14198527D02*
X12375968Y-14198527D01*
X12375968Y-14198527D02*
X12395015Y-14208051D01*
X12518825Y-14331860D02*
X12499777Y-14322336D01*
X12499777Y-14322336D02*
X12490254Y-14303289D01*
X12490254Y-14303289D02*
X12490254Y-14131860D01*
X12623587Y-14331860D02*
X12604539Y-14322336D01*
X12604539Y-14322336D02*
X12595015Y-14312813D01*
X12595015Y-14312813D02*
X12585492Y-14293765D01*
X12585492Y-14293765D02*
X12585492Y-14236622D01*
X12585492Y-14236622D02*
X12595015Y-14217574D01*
X12595015Y-14217574D02*
X12604539Y-14208051D01*
X12604539Y-14208051D02*
X12623587Y-14198527D01*
X12623587Y-14198527D02*
X12652158Y-14198527D01*
X12652158Y-14198527D02*
X12671206Y-14208051D01*
X12671206Y-14208051D02*
X12680730Y-14217574D01*
X12680730Y-14217574D02*
X12690254Y-14236622D01*
X12690254Y-14236622D02*
X12690254Y-14293765D01*
X12690254Y-14293765D02*
X12680730Y-14312813D01*
X12680730Y-14312813D02*
X12671206Y-14322336D01*
X12671206Y-14322336D02*
X12652158Y-14331860D01*
X12652158Y-14331860D02*
X12623587Y-14331860D01*
X12747396Y-14198527D02*
X12823587Y-14198527D01*
X12775968Y-14131860D02*
X12775968Y-14303289D01*
X12775968Y-14303289D02*
X12785492Y-14322336D01*
X12785492Y-14322336D02*
X12804539Y-14331860D01*
X12804539Y-14331860D02*
X12823587Y-14331860D01*
X12880730Y-14322336D02*
X12899777Y-14331860D01*
X12899777Y-14331860D02*
X12937873Y-14331860D01*
X12937873Y-14331860D02*
X12956920Y-14322336D01*
X12956920Y-14322336D02*
X12966444Y-14303289D01*
X12966444Y-14303289D02*
X12966444Y-14293765D01*
X12966444Y-14293765D02*
X12956920Y-14274717D01*
X12956920Y-14274717D02*
X12937873Y-14265194D01*
X12937873Y-14265194D02*
X12909301Y-14265194D01*
X12909301Y-14265194D02*
X12890254Y-14255670D01*
X12890254Y-14255670D02*
X12880730Y-14236622D01*
X12880730Y-14236622D02*
X12880730Y-14227098D01*
X12880730Y-14227098D02*
X12890254Y-14208051D01*
X12890254Y-14208051D02*
X12909301Y-14198527D01*
X12909301Y-14198527D02*
X12937873Y-14198527D01*
X12937873Y-14198527D02*
X12956920Y-14208051D01*
X13033111Y-14408051D02*
X13042635Y-14398527D01*
X13042635Y-14398527D02*
X13061682Y-14369955D01*
X13061682Y-14369955D02*
X13071206Y-14350908D01*
X13071206Y-14350908D02*
X13080730Y-14322336D01*
X13080730Y-14322336D02*
X13090254Y-14274717D01*
X13090254Y-14274717D02*
X13090254Y-14236622D01*
X13090254Y-14236622D02*
X13080730Y-14189003D01*
X13080730Y-14189003D02*
X13071206Y-14160432D01*
X13071206Y-14160432D02*
X13061682Y-14141384D01*
X13061682Y-14141384D02*
X13042635Y-14112813D01*
X13042635Y-14112813D02*
X13033111Y-14103289D01*
D12*
X6588000Y-14453376D02*
X6588000Y-14555376D01*
X6537000Y-14504376D02*
X6639000Y-14504376D01*
D11*
X7004539Y-14595860D02*
X6890253Y-14595860D01*
X6947396Y-14595860D02*
X6947396Y-14395860D01*
X6947396Y-14395860D02*
X6928348Y-14424432D01*
X6928348Y-14424432D02*
X6909301Y-14443479D01*
X6909301Y-14443479D02*
X6890253Y-14453003D01*
X7090253Y-14576813D02*
X7099777Y-14586336D01*
X7099777Y-14586336D02*
X7090253Y-14595860D01*
X7090253Y-14595860D02*
X7080729Y-14586336D01*
X7080729Y-14586336D02*
X7090253Y-14576813D01*
X7090253Y-14576813D02*
X7090253Y-14595860D01*
X7223586Y-14395860D02*
X7242634Y-14395860D01*
X7242634Y-14395860D02*
X7261682Y-14405384D01*
X7261682Y-14405384D02*
X7271205Y-14414908D01*
X7271205Y-14414908D02*
X7280729Y-14433955D01*
X7280729Y-14433955D02*
X7290253Y-14472051D01*
X7290253Y-14472051D02*
X7290253Y-14519670D01*
X7290253Y-14519670D02*
X7280729Y-14557765D01*
X7280729Y-14557765D02*
X7271205Y-14576813D01*
X7271205Y-14576813D02*
X7261682Y-14586336D01*
X7261682Y-14586336D02*
X7242634Y-14595860D01*
X7242634Y-14595860D02*
X7223586Y-14595860D01*
X7223586Y-14595860D02*
X7204539Y-14586336D01*
X7204539Y-14586336D02*
X7195015Y-14576813D01*
X7195015Y-14576813D02*
X7185491Y-14557765D01*
X7185491Y-14557765D02*
X7175967Y-14519670D01*
X7175967Y-14519670D02*
X7175967Y-14472051D01*
X7175967Y-14472051D02*
X7185491Y-14433955D01*
X7185491Y-14433955D02*
X7195015Y-14414908D01*
X7195015Y-14414908D02*
X7204539Y-14405384D01*
X7204539Y-14405384D02*
X7223586Y-14395860D01*
X7366443Y-14414908D02*
X7375967Y-14405384D01*
X7375967Y-14405384D02*
X7395015Y-14395860D01*
X7395015Y-14395860D02*
X7442634Y-14395860D01*
X7442634Y-14395860D02*
X7461682Y-14405384D01*
X7461682Y-14405384D02*
X7471205Y-14414908D01*
X7471205Y-14414908D02*
X7480729Y-14433955D01*
X7480729Y-14433955D02*
X7480729Y-14453003D01*
X7480729Y-14453003D02*
X7471205Y-14481574D01*
X7471205Y-14481574D02*
X7356920Y-14595860D01*
X7356920Y-14595860D02*
X7480729Y-14595860D01*
X7604539Y-14395860D02*
X7623586Y-14395860D01*
X7623586Y-14395860D02*
X7642634Y-14405384D01*
X7642634Y-14405384D02*
X7652158Y-14414908D01*
X7652158Y-14414908D02*
X7661682Y-14433955D01*
X7661682Y-14433955D02*
X7671205Y-14472051D01*
X7671205Y-14472051D02*
X7671205Y-14519670D01*
X7671205Y-14519670D02*
X7661682Y-14557765D01*
X7661682Y-14557765D02*
X7652158Y-14576813D01*
X7652158Y-14576813D02*
X7642634Y-14586336D01*
X7642634Y-14586336D02*
X7623586Y-14595860D01*
X7623586Y-14595860D02*
X7604539Y-14595860D01*
X7604539Y-14595860D02*
X7585491Y-14586336D01*
X7585491Y-14586336D02*
X7575967Y-14576813D01*
X7575967Y-14576813D02*
X7566443Y-14557765D01*
X7566443Y-14557765D02*
X7556920Y-14519670D01*
X7556920Y-14519670D02*
X7556920Y-14472051D01*
X7556920Y-14472051D02*
X7566443Y-14433955D01*
X7566443Y-14433955D02*
X7575967Y-14414908D01*
X7575967Y-14414908D02*
X7585491Y-14405384D01*
X7585491Y-14405384D02*
X7604539Y-14395860D01*
X7756920Y-14595860D02*
X7756920Y-14462527D01*
X7756920Y-14481574D02*
X7766443Y-14472051D01*
X7766443Y-14472051D02*
X7785491Y-14462527D01*
X7785491Y-14462527D02*
X7814063Y-14462527D01*
X7814063Y-14462527D02*
X7833110Y-14472051D01*
X7833110Y-14472051D02*
X7842634Y-14491098D01*
X7842634Y-14491098D02*
X7842634Y-14595860D01*
X7842634Y-14491098D02*
X7852158Y-14472051D01*
X7852158Y-14472051D02*
X7871205Y-14462527D01*
X7871205Y-14462527D02*
X7899777Y-14462527D01*
X7899777Y-14462527D02*
X7918824Y-14472051D01*
X7918824Y-14472051D02*
X7928348Y-14491098D01*
X7928348Y-14491098D02*
X7928348Y-14595860D01*
X8023586Y-14595860D02*
X8023586Y-14462527D01*
X8023586Y-14481574D02*
X8033110Y-14472051D01*
X8033110Y-14472051D02*
X8052158Y-14462527D01*
X8052158Y-14462527D02*
X8080729Y-14462527D01*
X8080729Y-14462527D02*
X8099777Y-14472051D01*
X8099777Y-14472051D02*
X8109301Y-14491098D01*
X8109301Y-14491098D02*
X8109301Y-14595860D01*
X8109301Y-14491098D02*
X8118824Y-14472051D01*
X8118824Y-14472051D02*
X8137872Y-14462527D01*
X8137872Y-14462527D02*
X8166443Y-14462527D01*
X8166443Y-14462527D02*
X8185491Y-14472051D01*
X8185491Y-14472051D02*
X8195015Y-14491098D01*
X8195015Y-14491098D02*
X8195015Y-14595860D01*
X8585491Y-14386336D02*
X8414063Y-14643479D01*
X8842634Y-14395860D02*
X8861682Y-14395860D01*
X8861682Y-14395860D02*
X8880729Y-14405384D01*
X8880729Y-14405384D02*
X8890253Y-14414908D01*
X8890253Y-14414908D02*
X8899777Y-14433955D01*
X8899777Y-14433955D02*
X8909301Y-14472051D01*
X8909301Y-14472051D02*
X8909301Y-14519670D01*
X8909301Y-14519670D02*
X8899777Y-14557765D01*
X8899777Y-14557765D02*
X8890253Y-14576813D01*
X8890253Y-14576813D02*
X8880729Y-14586336D01*
X8880729Y-14586336D02*
X8861682Y-14595860D01*
X8861682Y-14595860D02*
X8842634Y-14595860D01*
X8842634Y-14595860D02*
X8823587Y-14586336D01*
X8823587Y-14586336D02*
X8814063Y-14576813D01*
X8814063Y-14576813D02*
X8804539Y-14557765D01*
X8804539Y-14557765D02*
X8795015Y-14519670D01*
X8795015Y-14519670D02*
X8795015Y-14472051D01*
X8795015Y-14472051D02*
X8804539Y-14433955D01*
X8804539Y-14433955D02*
X8814063Y-14414908D01*
X8814063Y-14414908D02*
X8823587Y-14405384D01*
X8823587Y-14405384D02*
X8842634Y-14395860D01*
X8995015Y-14576813D02*
X9004539Y-14586336D01*
X9004539Y-14586336D02*
X8995015Y-14595860D01*
X8995015Y-14595860D02*
X8985491Y-14586336D01*
X8985491Y-14586336D02*
X8995015Y-14576813D01*
X8995015Y-14576813D02*
X8995015Y-14595860D01*
X9128348Y-14395860D02*
X9147396Y-14395860D01*
X9147396Y-14395860D02*
X9166444Y-14405384D01*
X9166444Y-14405384D02*
X9175968Y-14414908D01*
X9175968Y-14414908D02*
X9185491Y-14433955D01*
X9185491Y-14433955D02*
X9195015Y-14472051D01*
X9195015Y-14472051D02*
X9195015Y-14519670D01*
X9195015Y-14519670D02*
X9185491Y-14557765D01*
X9185491Y-14557765D02*
X9175968Y-14576813D01*
X9175968Y-14576813D02*
X9166444Y-14586336D01*
X9166444Y-14586336D02*
X9147396Y-14595860D01*
X9147396Y-14595860D02*
X9128348Y-14595860D01*
X9128348Y-14595860D02*
X9109301Y-14586336D01*
X9109301Y-14586336D02*
X9099777Y-14576813D01*
X9099777Y-14576813D02*
X9090253Y-14557765D01*
X9090253Y-14557765D02*
X9080729Y-14519670D01*
X9080729Y-14519670D02*
X9080729Y-14472051D01*
X9080729Y-14472051D02*
X9090253Y-14433955D01*
X9090253Y-14433955D02*
X9099777Y-14414908D01*
X9099777Y-14414908D02*
X9109301Y-14405384D01*
X9109301Y-14405384D02*
X9128348Y-14395860D01*
X9366444Y-14462527D02*
X9366444Y-14595860D01*
X9318825Y-14386336D02*
X9271206Y-14529194D01*
X9271206Y-14529194D02*
X9395015Y-14529194D01*
X9509301Y-14395860D02*
X9528349Y-14395860D01*
X9528349Y-14395860D02*
X9547396Y-14405384D01*
X9547396Y-14405384D02*
X9556920Y-14414908D01*
X9556920Y-14414908D02*
X9566444Y-14433955D01*
X9566444Y-14433955D02*
X9575968Y-14472051D01*
X9575968Y-14472051D02*
X9575968Y-14519670D01*
X9575968Y-14519670D02*
X9566444Y-14557765D01*
X9566444Y-14557765D02*
X9556920Y-14576813D01*
X9556920Y-14576813D02*
X9547396Y-14586336D01*
X9547396Y-14586336D02*
X9528349Y-14595860D01*
X9528349Y-14595860D02*
X9509301Y-14595860D01*
X9509301Y-14595860D02*
X9490253Y-14586336D01*
X9490253Y-14586336D02*
X9480729Y-14576813D01*
X9480729Y-14576813D02*
X9471206Y-14557765D01*
X9471206Y-14557765D02*
X9461682Y-14519670D01*
X9461682Y-14519670D02*
X9461682Y-14472051D01*
X9461682Y-14472051D02*
X9471206Y-14433955D01*
X9471206Y-14433955D02*
X9480729Y-14414908D01*
X9480729Y-14414908D02*
X9490253Y-14405384D01*
X9490253Y-14405384D02*
X9509301Y-14395860D01*
X9652158Y-14414908D02*
X9661682Y-14405384D01*
X9661682Y-14405384D02*
X9680729Y-14395860D01*
X9680729Y-14395860D02*
X9728349Y-14395860D01*
X9728349Y-14395860D02*
X9747396Y-14405384D01*
X9747396Y-14405384D02*
X9756920Y-14414908D01*
X9756920Y-14414908D02*
X9766444Y-14433955D01*
X9766444Y-14433955D02*
X9766444Y-14453003D01*
X9766444Y-14453003D02*
X9756920Y-14481574D01*
X9756920Y-14481574D02*
X9642634Y-14595860D01*
X9642634Y-14595860D02*
X9766444Y-14595860D01*
X9842634Y-14395860D02*
X9842634Y-14433955D01*
X9918825Y-14395860D02*
X9918825Y-14433955D01*
X10214063Y-14672051D02*
X10204539Y-14662527D01*
X10204539Y-14662527D02*
X10185491Y-14633955D01*
X10185491Y-14633955D02*
X10175968Y-14614908D01*
X10175968Y-14614908D02*
X10166444Y-14586336D01*
X10166444Y-14586336D02*
X10156920Y-14538717D01*
X10156920Y-14538717D02*
X10156920Y-14500622D01*
X10156920Y-14500622D02*
X10166444Y-14453003D01*
X10166444Y-14453003D02*
X10175968Y-14424432D01*
X10175968Y-14424432D02*
X10185491Y-14405384D01*
X10185491Y-14405384D02*
X10204539Y-14376813D01*
X10204539Y-14376813D02*
X10214063Y-14367289D01*
X10375968Y-14462527D02*
X10375968Y-14595860D01*
X10328349Y-14386336D02*
X10280730Y-14529194D01*
X10280730Y-14529194D02*
X10404539Y-14529194D01*
X10518825Y-14395860D02*
X10537872Y-14395860D01*
X10537872Y-14395860D02*
X10556920Y-14405384D01*
X10556920Y-14405384D02*
X10566444Y-14414908D01*
X10566444Y-14414908D02*
X10575968Y-14433955D01*
X10575968Y-14433955D02*
X10585491Y-14472051D01*
X10585491Y-14472051D02*
X10585491Y-14519670D01*
X10585491Y-14519670D02*
X10575968Y-14557765D01*
X10575968Y-14557765D02*
X10566444Y-14576813D01*
X10566444Y-14576813D02*
X10556920Y-14586336D01*
X10556920Y-14586336D02*
X10537872Y-14595860D01*
X10537872Y-14595860D02*
X10518825Y-14595860D01*
X10518825Y-14595860D02*
X10499777Y-14586336D01*
X10499777Y-14586336D02*
X10490253Y-14576813D01*
X10490253Y-14576813D02*
X10480730Y-14557765D01*
X10480730Y-14557765D02*
X10471206Y-14519670D01*
X10471206Y-14519670D02*
X10471206Y-14472051D01*
X10471206Y-14472051D02*
X10480730Y-14433955D01*
X10480730Y-14433955D02*
X10490253Y-14414908D01*
X10490253Y-14414908D02*
X10499777Y-14405384D01*
X10499777Y-14405384D02*
X10518825Y-14395860D01*
X10823587Y-14595860D02*
X10823587Y-14395860D01*
X10909301Y-14595860D02*
X10909301Y-14491098D01*
X10909301Y-14491098D02*
X10899777Y-14472051D01*
X10899777Y-14472051D02*
X10880730Y-14462527D01*
X10880730Y-14462527D02*
X10852158Y-14462527D01*
X10852158Y-14462527D02*
X10833111Y-14472051D01*
X10833111Y-14472051D02*
X10823587Y-14481574D01*
X11033111Y-14595860D02*
X11014063Y-14586336D01*
X11014063Y-14586336D02*
X11004539Y-14576813D01*
X11004539Y-14576813D02*
X10995015Y-14557765D01*
X10995015Y-14557765D02*
X10995015Y-14500622D01*
X10995015Y-14500622D02*
X11004539Y-14481574D01*
X11004539Y-14481574D02*
X11014063Y-14472051D01*
X11014063Y-14472051D02*
X11033111Y-14462527D01*
X11033111Y-14462527D02*
X11061682Y-14462527D01*
X11061682Y-14462527D02*
X11080730Y-14472051D01*
X11080730Y-14472051D02*
X11090253Y-14481574D01*
X11090253Y-14481574D02*
X11099777Y-14500622D01*
X11099777Y-14500622D02*
X11099777Y-14557765D01*
X11099777Y-14557765D02*
X11090253Y-14576813D01*
X11090253Y-14576813D02*
X11080730Y-14586336D01*
X11080730Y-14586336D02*
X11061682Y-14595860D01*
X11061682Y-14595860D02*
X11033111Y-14595860D01*
X11214063Y-14595860D02*
X11195015Y-14586336D01*
X11195015Y-14586336D02*
X11185491Y-14567289D01*
X11185491Y-14567289D02*
X11185491Y-14395860D01*
X11366444Y-14586336D02*
X11347396Y-14595860D01*
X11347396Y-14595860D02*
X11309301Y-14595860D01*
X11309301Y-14595860D02*
X11290253Y-14586336D01*
X11290253Y-14586336D02*
X11280730Y-14567289D01*
X11280730Y-14567289D02*
X11280730Y-14491098D01*
X11280730Y-14491098D02*
X11290253Y-14472051D01*
X11290253Y-14472051D02*
X11309301Y-14462527D01*
X11309301Y-14462527D02*
X11347396Y-14462527D01*
X11347396Y-14462527D02*
X11366444Y-14472051D01*
X11366444Y-14472051D02*
X11375968Y-14491098D01*
X11375968Y-14491098D02*
X11375968Y-14510146D01*
X11375968Y-14510146D02*
X11280730Y-14529194D01*
X11452158Y-14586336D02*
X11471206Y-14595860D01*
X11471206Y-14595860D02*
X11509301Y-14595860D01*
X11509301Y-14595860D02*
X11528349Y-14586336D01*
X11528349Y-14586336D02*
X11537872Y-14567289D01*
X11537872Y-14567289D02*
X11537872Y-14557765D01*
X11537872Y-14557765D02*
X11528349Y-14538717D01*
X11528349Y-14538717D02*
X11509301Y-14529194D01*
X11509301Y-14529194D02*
X11480730Y-14529194D01*
X11480730Y-14529194D02*
X11461682Y-14519670D01*
X11461682Y-14519670D02*
X11452158Y-14500622D01*
X11452158Y-14500622D02*
X11452158Y-14491098D01*
X11452158Y-14491098D02*
X11461682Y-14472051D01*
X11461682Y-14472051D02*
X11480730Y-14462527D01*
X11480730Y-14462527D02*
X11509301Y-14462527D01*
X11509301Y-14462527D02*
X11528349Y-14472051D01*
X11604539Y-14672051D02*
X11614063Y-14662527D01*
X11614063Y-14662527D02*
X11633111Y-14633955D01*
X11633111Y-14633955D02*
X11642634Y-14614908D01*
X11642634Y-14614908D02*
X11652158Y-14586336D01*
X11652158Y-14586336D02*
X11661682Y-14538717D01*
X11661682Y-14538717D02*
X11661682Y-14500622D01*
X11661682Y-14500622D02*
X11652158Y-14453003D01*
X11652158Y-14453003D02*
X11642634Y-14424432D01*
X11642634Y-14424432D02*
X11633111Y-14405384D01*
X11633111Y-14405384D02*
X11614063Y-14376813D01*
X11614063Y-14376813D02*
X11604539Y-14367289D01*
D13*
X6620402Y-14813278D02*
X6620402Y-14723475D01*
X6530598Y-14723475D01*
X6530598Y-14813278D01*
X6620402Y-14813278D01*
D11*
X7004539Y-14859860D02*
X6890253Y-14859860D01*
X6947396Y-14859860D02*
X6947396Y-14659860D01*
X6947396Y-14659860D02*
X6928348Y-14688432D01*
X6928348Y-14688432D02*
X6909301Y-14707479D01*
X6909301Y-14707479D02*
X6890253Y-14717003D01*
X7090253Y-14840813D02*
X7099777Y-14850336D01*
X7099777Y-14850336D02*
X7090253Y-14859860D01*
X7090253Y-14859860D02*
X7080729Y-14850336D01*
X7080729Y-14850336D02*
X7090253Y-14840813D01*
X7090253Y-14840813D02*
X7090253Y-14859860D01*
X7175967Y-14678908D02*
X7185491Y-14669384D01*
X7185491Y-14669384D02*
X7204539Y-14659860D01*
X7204539Y-14659860D02*
X7252158Y-14659860D01*
X7252158Y-14659860D02*
X7271205Y-14669384D01*
X7271205Y-14669384D02*
X7280729Y-14678908D01*
X7280729Y-14678908D02*
X7290253Y-14697955D01*
X7290253Y-14697955D02*
X7290253Y-14717003D01*
X7290253Y-14717003D02*
X7280729Y-14745574D01*
X7280729Y-14745574D02*
X7166443Y-14859860D01*
X7166443Y-14859860D02*
X7290253Y-14859860D01*
X7356920Y-14659860D02*
X7490253Y-14659860D01*
X7490253Y-14659860D02*
X7404539Y-14859860D01*
X7604539Y-14659860D02*
X7623586Y-14659860D01*
X7623586Y-14659860D02*
X7642634Y-14669384D01*
X7642634Y-14669384D02*
X7652158Y-14678908D01*
X7652158Y-14678908D02*
X7661682Y-14697955D01*
X7661682Y-14697955D02*
X7671205Y-14736051D01*
X7671205Y-14736051D02*
X7671205Y-14783670D01*
X7671205Y-14783670D02*
X7661682Y-14821765D01*
X7661682Y-14821765D02*
X7652158Y-14840813D01*
X7652158Y-14840813D02*
X7642634Y-14850336D01*
X7642634Y-14850336D02*
X7623586Y-14859860D01*
X7623586Y-14859860D02*
X7604539Y-14859860D01*
X7604539Y-14859860D02*
X7585491Y-14850336D01*
X7585491Y-14850336D02*
X7575967Y-14840813D01*
X7575967Y-14840813D02*
X7566443Y-14821765D01*
X7566443Y-14821765D02*
X7556920Y-14783670D01*
X7556920Y-14783670D02*
X7556920Y-14736051D01*
X7556920Y-14736051D02*
X7566443Y-14697955D01*
X7566443Y-14697955D02*
X7575967Y-14678908D01*
X7575967Y-14678908D02*
X7585491Y-14669384D01*
X7585491Y-14669384D02*
X7604539Y-14659860D01*
X7756920Y-14859860D02*
X7756920Y-14726527D01*
X7756920Y-14745574D02*
X7766443Y-14736051D01*
X7766443Y-14736051D02*
X7785491Y-14726527D01*
X7785491Y-14726527D02*
X7814063Y-14726527D01*
X7814063Y-14726527D02*
X7833110Y-14736051D01*
X7833110Y-14736051D02*
X7842634Y-14755098D01*
X7842634Y-14755098D02*
X7842634Y-14859860D01*
X7842634Y-14755098D02*
X7852158Y-14736051D01*
X7852158Y-14736051D02*
X7871205Y-14726527D01*
X7871205Y-14726527D02*
X7899777Y-14726527D01*
X7899777Y-14726527D02*
X7918824Y-14736051D01*
X7918824Y-14736051D02*
X7928348Y-14755098D01*
X7928348Y-14755098D02*
X7928348Y-14859860D01*
X8023586Y-14859860D02*
X8023586Y-14726527D01*
X8023586Y-14745574D02*
X8033110Y-14736051D01*
X8033110Y-14736051D02*
X8052158Y-14726527D01*
X8052158Y-14726527D02*
X8080729Y-14726527D01*
X8080729Y-14726527D02*
X8099777Y-14736051D01*
X8099777Y-14736051D02*
X8109301Y-14755098D01*
X8109301Y-14755098D02*
X8109301Y-14859860D01*
X8109301Y-14755098D02*
X8118824Y-14736051D01*
X8118824Y-14736051D02*
X8137872Y-14726527D01*
X8137872Y-14726527D02*
X8166443Y-14726527D01*
X8166443Y-14726527D02*
X8185491Y-14736051D01*
X8185491Y-14736051D02*
X8195015Y-14755098D01*
X8195015Y-14755098D02*
X8195015Y-14859860D01*
X8585491Y-14650336D02*
X8414063Y-14907479D01*
X8842634Y-14659860D02*
X8861682Y-14659860D01*
X8861682Y-14659860D02*
X8880729Y-14669384D01*
X8880729Y-14669384D02*
X8890253Y-14678908D01*
X8890253Y-14678908D02*
X8899777Y-14697955D01*
X8899777Y-14697955D02*
X8909301Y-14736051D01*
X8909301Y-14736051D02*
X8909301Y-14783670D01*
X8909301Y-14783670D02*
X8899777Y-14821765D01*
X8899777Y-14821765D02*
X8890253Y-14840813D01*
X8890253Y-14840813D02*
X8880729Y-14850336D01*
X8880729Y-14850336D02*
X8861682Y-14859860D01*
X8861682Y-14859860D02*
X8842634Y-14859860D01*
X8842634Y-14859860D02*
X8823587Y-14850336D01*
X8823587Y-14850336D02*
X8814063Y-14840813D01*
X8814063Y-14840813D02*
X8804539Y-14821765D01*
X8804539Y-14821765D02*
X8795015Y-14783670D01*
X8795015Y-14783670D02*
X8795015Y-14736051D01*
X8795015Y-14736051D02*
X8804539Y-14697955D01*
X8804539Y-14697955D02*
X8814063Y-14678908D01*
X8814063Y-14678908D02*
X8823587Y-14669384D01*
X8823587Y-14669384D02*
X8842634Y-14659860D01*
X8995015Y-14840813D02*
X9004539Y-14850336D01*
X9004539Y-14850336D02*
X8995015Y-14859860D01*
X8995015Y-14859860D02*
X8985491Y-14850336D01*
X8985491Y-14850336D02*
X8995015Y-14840813D01*
X8995015Y-14840813D02*
X8995015Y-14859860D01*
X9128348Y-14659860D02*
X9147396Y-14659860D01*
X9147396Y-14659860D02*
X9166444Y-14669384D01*
X9166444Y-14669384D02*
X9175968Y-14678908D01*
X9175968Y-14678908D02*
X9185491Y-14697955D01*
X9185491Y-14697955D02*
X9195015Y-14736051D01*
X9195015Y-14736051D02*
X9195015Y-14783670D01*
X9195015Y-14783670D02*
X9185491Y-14821765D01*
X9185491Y-14821765D02*
X9175968Y-14840813D01*
X9175968Y-14840813D02*
X9166444Y-14850336D01*
X9166444Y-14850336D02*
X9147396Y-14859860D01*
X9147396Y-14859860D02*
X9128348Y-14859860D01*
X9128348Y-14859860D02*
X9109301Y-14850336D01*
X9109301Y-14850336D02*
X9099777Y-14840813D01*
X9099777Y-14840813D02*
X9090253Y-14821765D01*
X9090253Y-14821765D02*
X9080729Y-14783670D01*
X9080729Y-14783670D02*
X9080729Y-14736051D01*
X9080729Y-14736051D02*
X9090253Y-14697955D01*
X9090253Y-14697955D02*
X9099777Y-14678908D01*
X9099777Y-14678908D02*
X9109301Y-14669384D01*
X9109301Y-14669384D02*
X9128348Y-14659860D01*
X9375968Y-14659860D02*
X9280729Y-14659860D01*
X9280729Y-14659860D02*
X9271206Y-14755098D01*
X9271206Y-14755098D02*
X9280729Y-14745574D01*
X9280729Y-14745574D02*
X9299777Y-14736051D01*
X9299777Y-14736051D02*
X9347396Y-14736051D01*
X9347396Y-14736051D02*
X9366444Y-14745574D01*
X9366444Y-14745574D02*
X9375968Y-14755098D01*
X9375968Y-14755098D02*
X9385491Y-14774146D01*
X9385491Y-14774146D02*
X9385491Y-14821765D01*
X9385491Y-14821765D02*
X9375968Y-14840813D01*
X9375968Y-14840813D02*
X9366444Y-14850336D01*
X9366444Y-14850336D02*
X9347396Y-14859860D01*
X9347396Y-14859860D02*
X9299777Y-14859860D01*
X9299777Y-14859860D02*
X9280729Y-14850336D01*
X9280729Y-14850336D02*
X9271206Y-14840813D01*
X9509301Y-14659860D02*
X9528349Y-14659860D01*
X9528349Y-14659860D02*
X9547396Y-14669384D01*
X9547396Y-14669384D02*
X9556920Y-14678908D01*
X9556920Y-14678908D02*
X9566444Y-14697955D01*
X9566444Y-14697955D02*
X9575968Y-14736051D01*
X9575968Y-14736051D02*
X9575968Y-14783670D01*
X9575968Y-14783670D02*
X9566444Y-14821765D01*
X9566444Y-14821765D02*
X9556920Y-14840813D01*
X9556920Y-14840813D02*
X9547396Y-14850336D01*
X9547396Y-14850336D02*
X9528349Y-14859860D01*
X9528349Y-14859860D02*
X9509301Y-14859860D01*
X9509301Y-14859860D02*
X9490253Y-14850336D01*
X9490253Y-14850336D02*
X9480729Y-14840813D01*
X9480729Y-14840813D02*
X9471206Y-14821765D01*
X9471206Y-14821765D02*
X9461682Y-14783670D01*
X9461682Y-14783670D02*
X9461682Y-14736051D01*
X9461682Y-14736051D02*
X9471206Y-14697955D01*
X9471206Y-14697955D02*
X9480729Y-14678908D01*
X9480729Y-14678908D02*
X9490253Y-14669384D01*
X9490253Y-14669384D02*
X9509301Y-14659860D01*
X9699777Y-14659860D02*
X9718825Y-14659860D01*
X9718825Y-14659860D02*
X9737872Y-14669384D01*
X9737872Y-14669384D02*
X9747396Y-14678908D01*
X9747396Y-14678908D02*
X9756920Y-14697955D01*
X9756920Y-14697955D02*
X9766444Y-14736051D01*
X9766444Y-14736051D02*
X9766444Y-14783670D01*
X9766444Y-14783670D02*
X9756920Y-14821765D01*
X9756920Y-14821765D02*
X9747396Y-14840813D01*
X9747396Y-14840813D02*
X9737872Y-14850336D01*
X9737872Y-14850336D02*
X9718825Y-14859860D01*
X9718825Y-14859860D02*
X9699777Y-14859860D01*
X9699777Y-14859860D02*
X9680729Y-14850336D01*
X9680729Y-14850336D02*
X9671206Y-14840813D01*
X9671206Y-14840813D02*
X9661682Y-14821765D01*
X9661682Y-14821765D02*
X9652158Y-14783670D01*
X9652158Y-14783670D02*
X9652158Y-14736051D01*
X9652158Y-14736051D02*
X9661682Y-14697955D01*
X9661682Y-14697955D02*
X9671206Y-14678908D01*
X9671206Y-14678908D02*
X9680729Y-14669384D01*
X9680729Y-14669384D02*
X9699777Y-14659860D01*
X9842634Y-14659860D02*
X9842634Y-14697955D01*
X9918825Y-14659860D02*
X9918825Y-14697955D01*
X10214063Y-14936051D02*
X10204539Y-14926527D01*
X10204539Y-14926527D02*
X10185491Y-14897955D01*
X10185491Y-14897955D02*
X10175968Y-14878908D01*
X10175968Y-14878908D02*
X10166444Y-14850336D01*
X10166444Y-14850336D02*
X10156920Y-14802717D01*
X10156920Y-14802717D02*
X10156920Y-14764622D01*
X10156920Y-14764622D02*
X10166444Y-14717003D01*
X10166444Y-14717003D02*
X10175968Y-14688432D01*
X10175968Y-14688432D02*
X10185491Y-14669384D01*
X10185491Y-14669384D02*
X10204539Y-14640813D01*
X10204539Y-14640813D02*
X10214063Y-14631289D01*
X10375968Y-14726527D02*
X10375968Y-14859860D01*
X10328349Y-14650336D02*
X10280730Y-14793194D01*
X10280730Y-14793194D02*
X10404539Y-14793194D01*
X10471206Y-14678908D02*
X10480730Y-14669384D01*
X10480730Y-14669384D02*
X10499777Y-14659860D01*
X10499777Y-14659860D02*
X10547396Y-14659860D01*
X10547396Y-14659860D02*
X10566444Y-14669384D01*
X10566444Y-14669384D02*
X10575968Y-14678908D01*
X10575968Y-14678908D02*
X10585491Y-14697955D01*
X10585491Y-14697955D02*
X10585491Y-14717003D01*
X10585491Y-14717003D02*
X10575968Y-14745574D01*
X10575968Y-14745574D02*
X10461682Y-14859860D01*
X10461682Y-14859860D02*
X10585491Y-14859860D01*
X10823587Y-14859860D02*
X10823587Y-14659860D01*
X10909301Y-14859860D02*
X10909301Y-14755098D01*
X10909301Y-14755098D02*
X10899777Y-14736051D01*
X10899777Y-14736051D02*
X10880730Y-14726527D01*
X10880730Y-14726527D02*
X10852158Y-14726527D01*
X10852158Y-14726527D02*
X10833111Y-14736051D01*
X10833111Y-14736051D02*
X10823587Y-14745574D01*
X11033111Y-14859860D02*
X11014063Y-14850336D01*
X11014063Y-14850336D02*
X11004539Y-14840813D01*
X11004539Y-14840813D02*
X10995015Y-14821765D01*
X10995015Y-14821765D02*
X10995015Y-14764622D01*
X10995015Y-14764622D02*
X11004539Y-14745574D01*
X11004539Y-14745574D02*
X11014063Y-14736051D01*
X11014063Y-14736051D02*
X11033111Y-14726527D01*
X11033111Y-14726527D02*
X11061682Y-14726527D01*
X11061682Y-14726527D02*
X11080730Y-14736051D01*
X11080730Y-14736051D02*
X11090253Y-14745574D01*
X11090253Y-14745574D02*
X11099777Y-14764622D01*
X11099777Y-14764622D02*
X11099777Y-14821765D01*
X11099777Y-14821765D02*
X11090253Y-14840813D01*
X11090253Y-14840813D02*
X11080730Y-14850336D01*
X11080730Y-14850336D02*
X11061682Y-14859860D01*
X11061682Y-14859860D02*
X11033111Y-14859860D01*
X11214063Y-14859860D02*
X11195015Y-14850336D01*
X11195015Y-14850336D02*
X11185491Y-14831289D01*
X11185491Y-14831289D02*
X11185491Y-14659860D01*
X11366444Y-14850336D02*
X11347396Y-14859860D01*
X11347396Y-14859860D02*
X11309301Y-14859860D01*
X11309301Y-14859860D02*
X11290253Y-14850336D01*
X11290253Y-14850336D02*
X11280730Y-14831289D01*
X11280730Y-14831289D02*
X11280730Y-14755098D01*
X11280730Y-14755098D02*
X11290253Y-14736051D01*
X11290253Y-14736051D02*
X11309301Y-14726527D01*
X11309301Y-14726527D02*
X11347396Y-14726527D01*
X11347396Y-14726527D02*
X11366444Y-14736051D01*
X11366444Y-14736051D02*
X11375968Y-14755098D01*
X11375968Y-14755098D02*
X11375968Y-14774146D01*
X11375968Y-14774146D02*
X11280730Y-14793194D01*
X11452158Y-14850336D02*
X11471206Y-14859860D01*
X11471206Y-14859860D02*
X11509301Y-14859860D01*
X11509301Y-14859860D02*
X11528349Y-14850336D01*
X11528349Y-14850336D02*
X11537872Y-14831289D01*
X11537872Y-14831289D02*
X11537872Y-14821765D01*
X11537872Y-14821765D02*
X11528349Y-14802717D01*
X11528349Y-14802717D02*
X11509301Y-14793194D01*
X11509301Y-14793194D02*
X11480730Y-14793194D01*
X11480730Y-14793194D02*
X11461682Y-14783670D01*
X11461682Y-14783670D02*
X11452158Y-14764622D01*
X11452158Y-14764622D02*
X11452158Y-14755098D01*
X11452158Y-14755098D02*
X11461682Y-14736051D01*
X11461682Y-14736051D02*
X11480730Y-14726527D01*
X11480730Y-14726527D02*
X11509301Y-14726527D01*
X11509301Y-14726527D02*
X11528349Y-14736051D01*
X11604539Y-14936051D02*
X11614063Y-14926527D01*
X11614063Y-14926527D02*
X11633111Y-14897955D01*
X11633111Y-14897955D02*
X11642634Y-14878908D01*
X11642634Y-14878908D02*
X11652158Y-14850336D01*
X11652158Y-14850336D02*
X11661682Y-14802717D01*
X11661682Y-14802717D02*
X11661682Y-14764622D01*
X11661682Y-14764622D02*
X11652158Y-14717003D01*
X11652158Y-14717003D02*
X11642634Y-14688432D01*
X11642634Y-14688432D02*
X11633111Y-14669384D01*
X11633111Y-14669384D02*
X11614063Y-14640813D01*
X11614063Y-14640813D02*
X11604539Y-14631289D01*
M02*
