M48
; DRILL file {KiCad 8.0.8} date 2025-06-10T10:10:25+0200
; FORMAT={-:-/ absolute / metric / decimal}
; #@! TF.CreationDate,2025-06-10T10:10:25+02:00
; #@! TF.GenerationSoftware,Kicad,Pcbnew,8.0.8
; #@! TF.FileFunction,NonPlated,1,2,NPTH
FMAT,2
METRIC
; #@! TA.AperFunction,NonPlated,NPTH,ComponentDrill
T1C0.500
; #@! TA.AperFunction,NonPlated,NPTH,ComponentDrill
T2C0.600
; #@! TA.AperFunction,NonPlated,NPTH,ComponentDrill
T3C1.500
; #@! TA.AperFunction,NonPlated,NPTH,ComponentDrill
T4C1.702
; #@! TA.AperFunction,NonPlated,NPTH,ComponentDrill
T5C1.800
; #@! TA.AperFunction,NonPlated,NPTH,ComponentDrill
T6C2.200
; #@! TA.AperFunction,NonPlated,NPTH,ComponentDrill
T7C3.000
; #@! TA.AperFunction,NonPlated,NPTH,ComponentDrill
T8C3.429
%
G90
G05
T1
X187.84Y-63.285
X187.84Y-64.035
X187.84Y-64.785
X187.84Y-66.285
X187.84Y-67.035
X187.84Y-67.785
X187.84Y-77.0
X187.84Y-77.75
X187.84Y-78.5
X187.84Y-80.0
X187.84Y-94.0
X187.84Y-94.75
X187.84Y-95.5
X187.84Y-97.0
X187.84Y-106.185
X187.84Y-106.935
X187.84Y-107.685
X187.84Y-109.185
X187.84Y-109.935
X187.84Y-110.685
T2
X72.25Y-106.11
X72.25Y-111.89
T3
X76.112Y-55.738
X80.962Y-55.738
T4
X80.255Y-123.324
X90.225Y-118.676
X99.74Y-60.0
X99.74Y-77.0
X99.74Y-94.0
X100.824Y-114.955
X110.74Y-60.0
X110.74Y-77.0
X110.74Y-94.0
X111.656Y-113.045
X117.74Y-58.0
X117.74Y-75.0
X117.74Y-92.0
X122.761Y-112.521
X128.74Y-58.0
X128.74Y-75.0
X128.74Y-92.0
X133.719Y-113.479
X135.74Y-53.0
X135.74Y-70.0
X135.74Y-87.0
X146.74Y-53.0
X146.74Y-70.0
X146.74Y-87.0
X153.74Y-58.0
X153.74Y-75.0
X153.74Y-92.0
X164.74Y-58.0
X164.74Y-75.0
X164.74Y-92.0
X171.74Y-70.0
X171.74Y-87.0
X171.74Y-104.0
X182.74Y-70.0
X182.74Y-87.0
X182.74Y-104.0
X189.74Y-70.0
X189.74Y-87.0
X189.74Y-104.0
X200.74Y-70.0
X200.74Y-87.0
X200.74Y-104.0
T5
X75.812Y-52.708
X81.262Y-52.708
T6
X92.44Y-107.6
X94.74Y-67.0
X149.84Y-61.0
X166.04Y-107.6
X168.24Y-78.5
X186.19Y-95.5
X186.24Y-78.5
T7
X82.725Y-115.607
X88.187Y-115.488
X105.207Y-108.14
X105.24Y-54.05
X105.24Y-71.05
X105.24Y-88.05
X110.24Y-56.25
X110.24Y-73.25
X110.24Y-90.25
X110.513Y-109.439
X123.24Y-52.05
X123.24Y-69.05
X123.24Y-86.05
X128.24Y-54.25
X128.24Y-71.25
X128.24Y-88.25
X128.759Y-107.073
X133.548Y-109.7
X141.24Y-47.05
X141.24Y-64.05
X141.24Y-81.05
X146.24Y-49.25
X146.24Y-66.25
X146.24Y-83.25
X159.24Y-52.05
X159.24Y-69.05
X159.24Y-86.05
X164.24Y-54.25
X164.24Y-71.25
X164.24Y-88.25
X177.24Y-64.05
X177.24Y-81.05
X177.24Y-98.05
X182.24Y-66.25
X182.24Y-83.25
X182.24Y-100.25
X195.24Y-64.05
X195.24Y-81.05
X195.24Y-98.05
X200.24Y-66.25
X200.24Y-83.25
X200.24Y-100.25
T8
X85.24Y-121.0
X105.24Y-60.0
X105.24Y-77.0
X105.24Y-94.0
X106.24Y-114.0
X123.24Y-58.0
X123.24Y-75.0
X123.24Y-92.0
X128.24Y-113.0
X141.24Y-53.0
X141.24Y-70.0
X141.24Y-87.0
X159.24Y-58.0
X159.24Y-75.0
X159.24Y-92.0
X177.24Y-70.0
X177.24Y-87.0
X177.24Y-104.0
X195.24Y-70.0
X195.24Y-87.0
X195.24Y-104.0
M30
