M48
; DRILL file {KiCad 8.0.8} date 2025-05-22T15:24:12+0200
; FORMAT={-:-/ absolute / inch / decimal}
; #@! TF.CreationDate,2025-05-22T15:24:12+02:00
; #@! TF.GenerationSoftware,Kicad,Pcbnew,8.0.8
; #@! TF.FileFunction,NonPlated,1,2,NPTH
FMAT,2
INCH
; #@! TA.AperFunction,NonPlated,NPTH,ComponentDrill
T1C0.0197
; #@! TA.AperFunction,NonPlated,NPTH,ComponentDrill
T2C0.0236
; #@! TA.AperFunction,NonPlated,NPTH,ComponentDrill
T3C0.0591
; #@! TA.AperFunction,NonPlated,NPTH,ComponentDrill
T4C0.0670
; #@! TA.AperFunction,NonPlated,NPTH,ComponentDrill
T5C0.0709
; #@! TA.AperFunction,NonPlated,NPTH,ComponentDrill
T6C0.0866
; #@! TA.AperFunction,NonPlated,NPTH,ComponentDrill
T7C0.1181
; #@! TA.AperFunction,NonPlated,NPTH,ComponentDrill
T8C0.1350
%
G90
G05
T1
X3.2047Y-2.4915
X3.2047Y-2.5211
X3.2047Y-2.5506
X3.2047Y-2.6097
X3.2047Y-2.6392
X3.2047Y-2.6687
X3.2047Y-3.0315
X3.2047Y-3.061
X3.2047Y-3.0906
X3.2047Y-3.1496
X3.2047Y-3.7008
X3.2047Y-3.7303
X3.2047Y-3.7598
X3.2047Y-3.8189
X3.2047Y-4.1805
X3.2047Y-4.21
X3.2047Y-4.2396
X3.2047Y-4.2986
X3.2047Y-4.3282
X3.2047Y-4.3577
T2
X7.7539Y-4.1776
X7.7539Y-4.4051
T3
X7.4125Y-2.1944
X7.6035Y-2.1944
T4
X2.6969Y-2.7559
X2.6969Y-3.4252
X2.6969Y-4.0945
X3.1299Y-2.7559
X3.1299Y-3.4252
X3.1299Y-4.0945
X3.4055Y-2.7559
X3.4055Y-3.4252
X3.4055Y-4.0945
X3.8386Y-2.7559
X3.8386Y-3.4252
X3.8386Y-4.0945
X4.1142Y-2.2835
X4.1142Y-2.9528
X4.1142Y-3.622
X4.5472Y-2.2835
X4.5472Y-2.9528
X4.5472Y-3.622
X4.8228Y-2.0866
X4.8228Y-2.7559
X4.8228Y-3.4252
X5.2559Y-2.0866
X5.2559Y-2.7559
X5.2559Y-3.4252
X5.3355Y-4.4677
X5.5315Y-2.2835
X5.5315Y-2.9528
X5.5315Y-3.622
X5.7669Y-4.4299
X5.9646Y-2.2835
X5.9646Y-2.9528
X5.9646Y-3.622
X6.2041Y-4.4506
X6.2402Y-2.3622
X6.2402Y-3.0315
X6.2402Y-3.7008
X6.6306Y-4.5258
X6.6732Y-2.3622
X6.6732Y-3.0315
X6.6732Y-3.7008
X7.0478Y-4.6723
X7.4403Y-4.8553
T5
X7.4007Y-2.0751
X7.6153Y-2.0751
T6
X3.2677Y-3.0906
X3.2697Y-3.7598
X3.9764Y-3.0906
X4.063Y-4.2362
X4.7008Y-2.4016
X6.8701Y-2.6378
X6.9606Y-4.2362
T7
X2.7165Y-2.9035
X2.7165Y-3.5728
X2.7165Y-4.2421
X2.9134Y-2.9902
X2.9134Y-3.6594
X2.9134Y-4.3287
X3.622Y-2.5217
X3.622Y-3.1909
X3.622Y-3.8602
X3.8189Y-2.6083
X3.8189Y-3.2776
X3.8189Y-3.9469
X4.3307Y-2.0492
X4.3307Y-2.7185
X4.3307Y-3.3878
X4.5276Y-2.1358
X4.5276Y-2.8051
X4.5276Y-3.4744
X5.0394Y-1.8524
X5.0394Y-2.5217
X5.0394Y-3.1909
X5.2362Y-1.939
X5.2362Y-2.6083
X5.2362Y-3.2776
X5.5308Y-4.2155
X5.7344Y-4.2846
X5.748Y-2.0492
X5.748Y-2.7185
X5.748Y-3.3878
X5.9449Y-2.1358
X5.9449Y-2.8051
X5.9449Y-3.4744
X6.4567Y-2.128
X6.4567Y-2.7972
X6.4567Y-3.4665
X6.458Y-4.2575
X6.6368Y-4.377
X6.6535Y-2.2146
X6.6535Y-2.8839
X6.6535Y-3.5531
X7.3431Y-4.5515
X7.4849Y-4.7132
T8
X2.9134Y-2.7559
X2.9134Y-3.4252
X2.9134Y-4.0945
X3.622Y-2.7559
X3.622Y-3.4252
X3.622Y-4.0945
X4.3307Y-2.2835
X4.3307Y-2.9528
X4.3307Y-3.622
X5.0394Y-2.0866
X5.0394Y-2.7559
X5.0394Y-3.4252
X5.5512Y-4.4488
X5.748Y-2.2835
X5.748Y-2.9528
X5.748Y-3.622
X6.4173Y-4.4882
X6.4567Y-2.3622
X6.4567Y-3.0315
X6.4567Y-3.7008
X7.2441Y-4.7638
M30
