M48
; DRILL file {KiCad 8.0.8} date 2025-05-22T15:24:12+0200
; FORMAT={-:-/ absolute / inch / decimal}
; #@! TF.CreationDate,2025-05-22T15:24:12+02:00
; #@! TF.GenerationSoftware,Kicad,Pcbnew,8.0.8
; #@! TF.FileFunction,Plated,1,2,PTH
FMAT,2
INCH
; #@! TA.AperFunction,Plated,PTH,ViaDrill
T1C0.0118
; #@! TA.AperFunction,Plated,PTH,ComponentDrill
T2C0.0236
; #@! TA.AperFunction,Plated,PTH,ComponentDrill
T3C0.0402
; #@! TA.AperFunction,Plated,PTH,ComponentDrill
T4C0.0500
%
G90
G05
T1
X3.1102Y-2.9921
X3.1102Y-3.6614
X3.1102Y-4.3307
X3.5236Y-3.7008
X6.8307Y-4.2815
X7.3228Y-3.7106
X7.3524Y-3.9094
T3
X7.158Y-2.07
X7.158Y-2.17
X7.158Y-2.27
X7.158Y-2.37
X7.158Y-2.47
X7.158Y-2.57
X7.158Y-2.67
X7.158Y-2.77
X7.158Y-2.87
X7.158Y-2.97
X7.158Y-3.07
X7.158Y-3.17
X7.158Y-3.27
X7.158Y-3.37
X7.158Y-3.47
X7.158Y-3.57
X7.158Y-3.67
X7.158Y-3.77
X7.158Y-3.87
X7.158Y-3.97
X7.858Y-2.07
X7.858Y-2.17
X7.858Y-2.27
X7.858Y-2.37
X7.858Y-2.47
X7.858Y-2.57
X7.858Y-2.67
X7.858Y-2.77
X7.858Y-2.87
X7.858Y-2.97
X7.858Y-3.07
X7.858Y-3.17
X7.858Y-3.27
X7.858Y-3.37
X7.858Y-3.47
X7.858Y-3.57
X7.858Y-3.67
X7.858Y-3.77
X7.858Y-3.87
X7.858Y-3.97
T4
X2.9134Y-2.5236
X2.9134Y-3.1929
X2.9134Y-3.8622
X3.1102Y-2.6063
X3.1102Y-3.2756
X3.1102Y-3.9449
X3.4252Y-2.9055
X3.4252Y-3.5748
X3.4252Y-4.2441
X3.622Y-2.9882
X3.622Y-3.6575
X3.622Y-4.3268
X4.1339Y-2.4331
X4.1339Y-3.1024
X4.1339Y-3.7717
X4.3307Y-2.5157
X4.3307Y-3.185
X4.3307Y-3.8543
X4.8425Y-2.2362
X4.8425Y-2.9055
X4.8425Y-3.5748
X5.0394Y-2.3189
X5.0394Y-2.9882
X5.0394Y-3.6575
X5.3681Y-4.615
X5.5512Y-2.4331
X5.5512Y-3.1024
X5.5512Y-3.7717
X5.5714Y-4.6802
X5.748Y-2.5157
X5.748Y-3.185
X5.748Y-3.8543
X6.1975Y-4.6013
X6.2598Y-2.5118
X6.2598Y-3.1811
X6.2598Y-3.8504
X6.377Y-4.7169
X6.4567Y-2.5945
X6.4567Y-3.2638
X6.4567Y-3.9331
X7.0025Y-4.8162
X7.1459Y-4.9743
T2
G00X7.7567Y-4.1213
M15
G01X7.7134Y-4.1213
M16
G05
G00X7.7567Y-4.4614
M15
G01X7.7134Y-4.4614
M16
G05
G00X7.915Y-4.1213
M15
G01X7.8835Y-4.1213
M16
G05
G00X7.915Y-4.4614
M15
G01X7.8835Y-4.4614
M16
G05
M30
